<?xml version="1.0" encoding="UTF-8" standalone="no"?>
<svg
   xmlns:dc="http://purl.org/dc/elements/1.1/"
   xmlns:cc="http://creativecommons.org/ns#"
   xmlns:rdf="http://www.w3.org/1999/02/22-rdf-syntax-ns#"
   xmlns:svg="http://www.w3.org/2000/svg"
   xmlns="http://www.w3.org/2000/svg"
   xmlns:sodipodi="http://sodipodi.sourceforge.net/DTD/sodipodi-0.dtd"
   xmlns:inkscape="http://www.inkscape.org/namespaces/inkscape"
   inkscape:version="1.0 (4035a4fb49, 2020-05-01)"
   height="270.375"
   width="478.76199"
   sodipodi:docname="ontologia_del_vino_archi_01.svg"
   version="1.0"
   viewBox="0 0 478.762 270.375"
   sodipodi:version="0.32"
   xml:space="preserve"
   id="Layer_1"><defs
   id="defs444" />
<sodipodi:namedview
   inkscape:current-layer="Layer_1"
   inkscape:window-maximized="1"
   inkscape:window-y="-8"
   inkscape:window-x="-8"
   inkscape:window-height="1017"
   inkscape:window-width="1920"
   inkscape:cy="193.42923"
   inkscape:cx="353.14294"
   inkscape:zoom="1.1114947"
   showgrid="false"
   inkscape:document-rotation="0"
   pagecolor="#ffffff"
   borderopacity="1.0"
   bordercolor="#666666"
   id="base" />
<g
   id="g3">
	<path
   fill="#c4afaf"
   clip-rule="evenodd"
   fill-rule="evenodd"
   d="m 148.98,156.43 c 1.989,0.392 5.964,0.153 3.615,2.744 -1.022,1.128 -1.478,2.639 -3.353,3.048 1.605,1.583 -1.311,4.625 -2.396,5.747 -0.868,0.899 -1.569,1.35 -2.308,2.439 -0.68,1.004 -1.414,1.968 -2.085,2.975 -2.378,3.566 -4.512,7.247 -6.146,11.221 0.043,0 0.285,-0.005 0.349,0 -1.197,0.816 -0.479,3.313 -0.479,4.552 0,2.187 0.179,5.539 2.16,6.821 1.604,1.038 3.016,3.613 5.112,4.696 1.961,1.014 3.511,2.292 5.363,3.564 1,0.688 2.619,0.933 3.433,1.747 0.963,0.964 2.188,1.597 3.31,2.353 0.995,0.669 2.251,1.379 2.743,2.525 0.434,1.009 2.42,1.823 3.135,2.896 3.87,5.805 -1.63,10.456 -4.876,15.003 -2.994,4.191 -6.815,7.545 -9.775,11.691 -2.681,3.753 -6.562,7.551 -10.082,10.69 -4.358,3.885 -8.176,8.404 -13.499,11.061 -3.287,1.639 -6.347,2.213 -9.776,2.896 -4.313,0.859 -8.837,0.883 -13.216,1.197 -5.765,0.414 -11.563,0.351 -17.331,0.566 -5.765,0.215 -11.58,0.088 -17.375,0.088 -5.866,0 -11.924,0.036 -17.763,-0.549 -6.589,-0.66 -13.256,-0.378 -19.86,-1.281 -2.089,-0.285 -4.424,-0.914 -6.532,-0.914 -0.593,0 -3.558,-0.837 -2.743,-1.655 -4.789,-1.194 -3.596,-6.866 -2.134,-10.189 0.171,-0.391 0.645,-0.987 0.871,-1.438 0.115,-0.226 0.344,-0.484 0.436,-0.696 0.121,-0.28 0.033,-0.626 0.283,-0.959 1.305,-1.737 1.822,-4.208 2.765,-6.182 0.841,-1.761 1.864,-2.853 2.57,-4.616 0.866,-2.17 1.773,-4.167 2.917,-6.227 1.342,-2.42 2.721,-4.833 3.958,-7.308 1.097,-2.193 3.77,-3.983 5.666,-5.496 8.158,-6.504 18.972,-9.71 28.555,-13.394 5.747,-2.211 11.681,-3.901 17.332,-6.382 4.786,-2.101 9.327,-4.993 13.918,-7.485 3.433,-1.864 7.185,-5.021 9.956,-7.75 0.686,-0.676 1.714,-1.377 2.309,-2.047 0.32,-0.36 0.426,-1.165 0.893,-1.632 0.578,-0.578 1.303,-1.104 1.677,-1.852 0.145,-0.291 1.451,-1.582 1.807,-1.785 1.153,-0.659 2.7,-2.234 3.483,-3.354 0.688,-0.982 1.508,-1.882 2.113,-2.938 0.407,-0.712 1.095,-1.46 1.306,-2.199 -1.066,-0.528 0.006,-2.237 0.479,-2.875 0.926,-1.247 2.451,-1.923 3.657,-2.917 0.959,-0.791 0.165,-0.403 0.61,-1.133 0.147,-0.241 0.57,-0.87 0.695,-1.132 0.107,-0.222 0.452,-0.48 0.522,-0.653 -0.017,0.043 -0.062,-0.818 -0.021,-1.022 0.578,-2.904 8.847,-2.465 11.032,-2.605 2.264,-0.146 4.627,-0.539 6.895,-0.312 1.9,0.17 4.16,0.59 5.86,0.44"
   id="path5" />
	<path
   d="m 73.864,1.187 c 1.486,0.576 5.201,1.27 5.53,2.918 0.191,0.956 0.044,1.864 0.044,2.831 0,0.837 -0.436,1.233 -0.436,2.046 0,1.417 0.822,2.779 -0.108,4.268 -0.209,0.336 -0.83,0.67 -0.64,0.988 0.442,0.736 0.784,1.408 1.102,2.204 0.52,1.295 0.599,2.874 0.604,4.254 0.013,2.964 0.017,6.393 -0.95,9.17 -0.373,1.073 -0.008,3.054 -0.008,4.198 0,1.735 -0.044,3.469 -0.044,5.204 0,6.467 -0.08,13.115 0.505,19.552 0.117,1.276 0.644,10.07 1.325,9.994 -0.544,1.14 0.368,3.367 0.661,4.453 0.754,2.804 1.666,5.573 2.518,8.35 1.855,6.049 3.979,11.716 7.533,16.766 2.609,3.708 4.971,7.673 8.448,10.625 2.101,1.784 3.745,3.976 5.467,6.167 1.951,2.482 4.715,4.143 6.551,6.592 1.697,2.262 3.795,4.196 5.662,6.314 1.944,2.206 3.101,4.885 5.051,7.011 3.816,4.161 6.791,10.275 8.23,15.72 1.516,5.735 1.315,11.798 0.916,17.658 -0.425,6.245 -0.154,12.533 -0.568,18.789 -0.413,6.229 -1.773,12.286 -1.437,18.552 0.264,4.903 -0.769,10.065 -1.548,14.959 -0.95,5.972 -1.179,11.99 -2.197,17.96 -0.92,5.4 -1.75,11.39 -3.704,16.524 -1.022,2.684 -2.474,5.174 -4.238,7.441 -0.354,0.459 -1.843,1.861 -2.465,2.206 -1.214,0.672 -2.465,0.521 -3.484,1.284 -1.359,1.019 -5.177,1.474 -6.88,1.634 -5.856,0.552 -11.531,1.643 -17.485,1.78 -2.473,0.057 -4.939,0.756 -7.423,0.551 -0.979,-0.083 -2.663,0.223 -3.896,0.188 -1.72,-0.049 -3.441,-0.097 -5.161,-0.145 -2.438,-0.069 -5.106,0.393 -7.496,0.061 -2.624,-0.368 -5.252,-0.475 -7.901,-0.475 -2.596,0 -5.222,-0.182 -7.793,-0.539 -2.335,-0.326 -4.637,-0.17 -6.987,-0.506 -4.339,-0.621 -8.618,-1.091 -12.846,-2.222 -1.138,-0.304 -2.264,-0.628 -3.397,-0.957 -0.849,-0.247 -3.071,-0.272 -3.658,-0.764 -0.884,-0.736 -2.973,-0.877 -3.44,-1.719 -0.055,-0.036 -1.029,-0.095 -1.176,-0.175 -0.604,-0.328 -1.663,-1.432 -2.134,-1.981 -0.289,-0.337 -0.345,-0.773 -0.24,-1.198 0.107,-0.43 -0.931,-0.826 -1.31,-1.115 -1.042,-0.796 -1.647,-2.017 -2.239,-3.151 C 8.461,251.112 6.914,247.023 6.28,242.105 5.634,237.101 5.308,232.058 4.625,227.278 3.853,221.866 3.462,216.188 3.06,210.706 2.903,208.561 3.333,206.392 2.839,204.417 2.262,202.109 2.438,199.414 2.099,197.014 1.257,191.043 1.163,184.903 0.871,178.881 0.593,173.135 -0.843,166.549 0.705,160.936 c 0.717,-2.599 0.928,-5.702 1.951,-8.114 1.232,-2.903 2.111,-5.946 3.361,-8.847 1.667,-3.867 4.161,-7.577 6.707,-10.93 1.618,-2.131 2.982,-4.273 4.758,-6.303 1.938,-2.215 3.927,-4.423 5.541,-6.892 1.682,-2.574 4.461,-4.77 6.608,-6.975 2.153,-2.211 4.171,-4.762 5.78,-7.395 3.221,-5.27 5.694,-11.272 8.26,-16.872 2.767,-6.034 3.499,-12.713 5.211,-19.076 0.556,-2.064 0.948,-5.064 0.942,-7.032 -0.008,-2.434 0.643,-5.055 0.413,-7.466 -0.084,-0.884 0.361,-1.979 0.458,-2.942 0.113,-1.134 0.321,-2.088 0.522,-3.179 0.491,-2.666 1.094,-5.769 0.848,-8.479 -0.128,-1.417 0.218,-2.885 0.197,-4.324 -0.02,-1.331 -0.563,-2.88 -0.174,-4.05 0.6,-1.808 -1.074,-3.295 -1.307,-4.964 -0.374,-2.68 -0.045,-5.332 0.109,-7.947 0.09,-1.546 0.715,-2.32 1.328,-3.636 0.463,-0.995 0.553,-0.638 0.218,-1.807 -0.329,-1.149 -0.609,-1.98 -0.609,-3.201 0,-0.527 0.58,-0.854 0.565,-1.307 C 52.371,8.556 51.848,8.354 51.652,7.805 49.872,2.832 55.38,1.553 59.273,0.968 63.947,0.288 69.488,-0.89 73.868,1.207"
   clip-rule="evenodd"
   fill-rule="evenodd"
   id="path7" />
	<path
   fill="#bf80bf"
   clip-rule="evenodd"
   fill-rule="evenodd"
   d="m 121.2,168.88 c 5.397,1.521 3.106,12.359 2.784,16.434 -0.235,2.985 -0.521,5.961 -0.629,8.954 -0.104,2.872 0.202,6.129 -0.383,8.937 -1.192,5.724 -1.306,11.51 -2.12,17.277 -0.354,2.497 -1.047,4.978 -1.568,7.446 -0.54,2.559 -0.555,5.343 -1.452,7.827 -3.735,10.343 -13.666,12.075 -23.694,13.007 -5.075,0.47 -9.909,1.288 -15.025,1.789 -3.181,0.311 -6.337,0.588 -9.538,0.588 -1.571,0 -3.12,-0.108 -4.68,-0.282 -1.633,-0.181 -3.405,0.3 -5.105,0.209 -2.859,-0.155 -5.717,-0.986 -8.562,-1.342 -1.056,-0.132 -2.74,0.252 -3.692,-0.13 -1.485,-0.593 -2.963,-1.022 -4.545,-1.285 -3.137,-0.521 -6.266,-0.686 -9.369,-1.441 -1.269,-0.309 -3.801,-1.581 -5.088,-1.259 -0.843,0.21 -3.028,-1.279 -3.744,-1.742 -1.356,-0.872 -2.183,-2.04 -3.316,-3.123 -2.531,-2.422 -3.82,-4.997 -4.831,-8.325 -0.849,-2.799 -0.863,-6.032 -1.007,-8.932 -0.143,-2.891 -0.688,-5.729 -0.688,-8.622 0,-11.172 -1.282,-22.181 -2.439,-33.356 -0.563,-5.433 0.247,-12.144 6.04,-14.516 5.99,-2.45 12.503,1.663 18.413,2.507 9.542,1.363 19.434,2.801 29.109,2.43 5.037,-0.193 10.11,-0.483 15.125,-1.011 2.47,-0.26 4.94,-0.545 7.394,-0.94 1.514,-0.243 3.717,-0.247 4.916,-1.098 -0.116,0.218 -0.231,0.436 -0.349,0.653 2.608,-0.38 5.225,-0.681 7.795,-1.001 2.747,-0.344 5.168,-1.521 7.795,-2.091 2.247,-0.487 3.988,-0.609 6.271,-0.609 1.41,0 1.747,-0.065 3.092,0.718 1.12,0.63 2.15,1.44 3.1,2.31"
   id="path9" />
	<path
   fill="#948484"
   clip-rule="evenodd"
   fill-rule="evenodd"
   d="m 121.2,168.88 c 5.397,1.521 3.106,12.359 2.784,16.434 -0.235,2.985 -0.521,5.961 -0.629,8.954 -0.104,2.872 0.202,6.129 -0.383,8.937 -1.192,5.724 -1.306,11.51 -2.12,17.277 -0.354,2.497 -1.047,4.978 -1.568,7.446 -0.54,2.559 -0.555,5.343 -1.452,7.827 -3.735,10.343 -13.666,12.075 -23.694,13.007 -5.075,0.47 -9.909,1.288 -15.025,1.789 -3.181,0.311 -6.337,0.588 -9.538,0.588 -1.571,0 -3.12,-0.108 -4.68,-0.282 -1.633,-0.181 -3.405,0.3 -5.105,0.209 -2.859,-0.155 -5.717,-0.986 -8.562,-1.342 -1.056,-0.132 -2.74,0.252 -3.692,-0.13 -1.485,-0.593 -2.963,-1.022 -4.545,-1.285 -3.137,-0.521 -6.266,-0.686 -9.369,-1.441 -1.269,-0.309 -3.801,-1.581 -5.088,-1.259 -0.843,0.21 -3.028,-1.279 -3.744,-1.742 -1.356,-0.872 -2.183,-2.04 -3.316,-3.123 -2.531,-2.422 -3.82,-4.997 -4.831,-8.325 -0.849,-2.799 -0.863,-6.032 -1.007,-8.932 -0.143,-2.891 -0.688,-5.729 -0.688,-8.622 0,-11.172 -1.282,-22.181 -2.439,-33.356 -0.563,-5.433 0.247,-12.144 6.04,-14.516 5.99,-2.45 12.503,1.663 18.413,2.507 9.542,1.363 19.434,2.801 29.109,2.43 5.037,-0.193 10.11,-0.483 15.125,-1.011 2.47,-0.26 4.94,-0.545 7.394,-0.94 1.514,-0.243 3.717,-0.247 4.916,-1.098 -0.116,0.218 -0.231,0.436 -0.349,0.653 2.608,-0.38 5.225,-0.681 7.795,-1.001 2.747,-0.344 5.168,-1.521 7.795,-2.091 2.247,-0.487 3.988,-0.609 6.271,-0.609 1.41,0 1.747,-0.065 3.092,0.718 1.12,0.63 2.15,1.44 3.1,2.31"
   id="path11" />
	<path
   fill="#c7abb1"
   clip-rule="evenodd"
   fill-rule="evenodd"
   d="m 122.64,184.21 c 0.9,4.991 -0.377,10.79 -0.641,15.824 -0.145,2.75 -0.343,5.587 -0.979,8.273 -0.346,1.462 -0.404,2.906 -0.493,4.403 -0.089,1.493 -0.609,3.058 -0.573,4.511 0.073,2.903 -0.345,5.7 -1.082,8.505 -0.687,2.606 -1.851,5.599 -1.851,8.304 0,1.307 -0.893,2.41 -1.698,3.349 -0.852,0.994 -1.197,2.38 -1.965,3.299 -1.835,2.202 -4.017,4.115 -6.766,5.062 -1.754,0.605 -3.457,0.421 -5.248,0.524 -1.13,0.064 -2.139,0.832 -3.004,0.826 -0.195,-1.185 -4.248,0.571 -5.29,0.787 -2.606,0.538 -5.32,0.938 -7.948,1.347 -4.236,0.662 -8.417,0.792 -12.662,0.709 -3.138,-0.063 -6.284,0.229 -9.423,0.289 -3.291,0.064 -6.168,-0.856 -9.356,-1.303 -2.879,-0.402 -5.123,0.062 -7.882,-1.132 -1.978,-0.854 -4.734,-0.528 -6.924,-0.893 -2.592,-0.433 -5.058,-1.122 -7.489,-1.807 -2.59,-0.729 -4.761,-1.188 -6.948,-3.063 -4.722,-4.048 -7.25,-8.754 -7.741,-14.999 -0.484,-6.168 -0.795,-12.251 -0.923,-18.43 -0.061,-2.919 -0.281,-5.831 -0.467,-8.744 -0.181,-2.841 0.038,-5.705 -0.23,-8.52 -0.169,-1.775 -0.412,-3.587 -0.761,-5.337 2.972,0.771 5.788,2.235 8.861,2.604 2.619,0.314 5.274,0.683 7.896,0.945 0.57,0.057 2.796,-0.188 3.013,0.152 0.599,0.945 -0.86,1.408 -1.505,1.685 -2.83,1.213 -5.332,1.322 -7.901,3.149 -1.23,0.875 -2.195,1.155 -2.025,3.027 0.198,2.164 1.208,4.265 1.832,6.343 0.782,2.607 0.983,5.142 1.465,7.793 0.52,2.864 4.946,2.266 6.871,1.388 1.442,-0.658 2.91,-1.39 1.764,-3.223 -0.444,-0.709 -1.197,-1.242 -1.197,-2.154 0,-1.021 2.033,-1.948 2.859,-2.224 2.694,-0.898 5.522,-0.593 6.308,2.549 0.441,1.77 1.031,3.971 1.022,5.836 -0.005,1.242 -0.246,2.518 -0.436,3.745 -0.094,0.607 -0.142,1.281 -0.304,1.872 -0.354,1.284 -0.149,1.034 -1.307,1.48 -2.859,1.101 -6.192,0.083 -8.182,3.134 -3.469,5.318 4.668,7.63 8.52,8.111 2.504,0.313 5.006,0.262 7.501,-0.063 0.892,-0.116 0.923,-0.454 1.871,-0.164 0.656,0.2 1.165,0.811 1.858,1.02 2.54,0.762 4.843,0.918 7.474,0.655 1.943,-0.194 4.615,-2.035 6.322,-1.087 0.593,0.328 1.27,0.719 1.96,0.719 0.797,0 1.284,-0.723 1.807,-0.785 0.937,-0.113 1.104,0.639 2.156,0.719 0.998,0.077 2.19,-0.563 3.157,-0.152 0.865,0.369 0.964,1.427 2.09,1.285 0.552,-0.069 1.37,-0.24 1.873,-0.458 1.102,-0.476 2.057,-1.386 1.96,-2.743 3.013,3.058 11.795,2.887 15.022,0.174 1.96,-1.646 2.879,-6.194 0.479,-7.75 0.522,0.043 1.044,0.086 1.567,0.13 -0.375,1.667 1.472,3.64 0.914,4.616 -0.207,0.364 -1.137,0.272 -1.459,1.023 -0.285,0.668 -0.322,1.419 -0.064,2.112 0.675,1.814 2.243,2.571 3.94,2.33 0.602,-0.087 1.18,-0.31 1.611,-0.742 0.915,-0.914 0.189,-0.695 1.546,-0.631 1.783,0.086 4.445,0.322 5.399,-1.611 0.569,-1.151 -0.018,-2.198 -0.043,-3.353 -0.035,-1.58 0.222,-0.998 1.415,-1.851 3.033,-2.165 0.808,-6.08 -2.417,-6.401 -1.209,-0.12 -1.381,1.306 -2.221,1.677 -2.316,1.024 -2.146,-3.948 -3.788,-4.965 -2.52,-1.557 -6.663,-0.133 -7.229,2.83 -0.654,-0.312 -1.264,-0.327 -1.612,-1.001 -0.261,-0.506 0.104,-1.808 -0.217,-2.525 -0.494,-1.104 -1.451,-1.841 -2.57,-2.265 -1.192,-0.452 -3.233,0.106 -3.701,-0.827 -2.123,-4.24 -9.86,0.495 -7.533,2.874 -0.159,0.059 -0.319,0.116 -0.479,0.175 -0.848,-2.528 -2.195,-2.91 -4.898,-2.286 -2.136,0.492 -3.981,3.187 -2.548,5.203 -0.547,0.386 -1.085,0.922 -1.72,1.176 -0.72,0.287 -0.828,-1.2 -1.025,-1.774 -0.405,-1.181 -1.213,-1.565 -2.219,-2.318 2.173,-1.494 4.47,-2.746 6.68,-4.175 2.812,-1.817 5.187,-4.236 8.082,-5.994 2.656,-1.611 5.355,-3.506 8.188,-4.745 2.438,-1.068 6.063,-2.623 8.797,-1.852 -0.817,2.788 -3.589,4.256 -4.679,6.871 -0.82,1.969 0.865,4.442 2.914,4.734 2.523,0.358 -0.025,1.238 0.806,2.634 0.352,0.592 2.849,0.336 3.571,0.218 1.445,-0.237 2.655,-0.85 3.179,-2.286 0.367,-1.01 0.233,-2.217 0.152,-3.265 -0.138,-1.782 0.216,-1.164 1.72,-1.112 1.32,0.048 3.294,-0.714 4.028,-1.938 0.506,-0.843 0.171,-2.055 0.414,-3.026 0.375,-1.499 0.856,-3.007 1.437,-4.441 0.585,-1.448 1.508,-2.432 2.438,-3.658 0.743,-0.979 1.03,-2.065 1.633,-3.069 1.121,-1.871 -0.688,-2.905 -1.938,-4.246 2.36,-0.48 5.08,-0.74 7.2,-1.59"
   id="path13" />
	<path
   fill="#948484"
   clip-rule="evenodd"
   fill-rule="evenodd"
   d="m 73.646,2.624 c 1.586,0.673 5.112,1.205 5.4,3.07 0.197,1.274 0.043,2.49 0.043,3.767 0,0.854 -0.397,1.289 -0.393,2.09 0.01,1.461 0.636,2.649 -0.13,4.18 -0.18,0.361 -0.803,0.63 -0.624,0.944 0.407,0.72 0.75,1.404 1.065,2.168 0.538,1.299 0.554,2.823 0.562,4.204 0.006,1.421 -0.137,2.808 -0.218,4.224 -0.101,1.768 -0.432,3.174 -0.697,4.877 -0.473,3.036 0.031,6.474 -0.039,9.555 -0.144,6.354 0.116,12.866 0.548,19.204 0.083,1.21 0.642,9.381 1.276,9.301 -0.569,1.055 0.344,3.347 0.618,4.366 0.833,3.09 1.722,6.29 2.779,9.308 1.018,2.906 1.865,6.065 3.1,8.883 1.228,2.808 2.989,5.018 4.738,7.403 2.571,3.503 4.67,6.968 8.013,9.754 2.278,1.899 3.899,4.612 5.816,6.877 2.012,2.377 4.424,3.995 6.351,6.424 1.742,2.197 3.863,4.088 5.66,6.245 0.759,0.91 1.608,2 2.102,3.082 0.707,1.546 1.814,2.541 2.902,3.838 3.607,4.302 6.226,10.534 7.433,15.961 1.342,6.041 0.538,12.205 0.45,18.313 -0.089,6.155 -0.236,12.294 -0.701,18.434 -0.221,2.914 -0.972,5.766 -1.229,8.658 -0.239,2.704 0.175,5.514 0.175,8.166 0,5.24 -1.347,10.624 -2.003,15.829 -0.786,6.223 -1.321,12.433 -2.612,18.594 -1.114,5.313 -1.567,10.952 -4.23,15.798 -1.68,3.055 -3.76,5.849 -7.048,6.977 -3.931,1.348 -8.764,2.068 -13.149,2.968 -5.473,1.122 -11.267,0.984 -16.789,1.407 -5.636,0.433 -11.372,-0.138 -17.142,0.211 -2.959,0.177 -6.08,-0.392 -9.069,-0.465 -3.024,-0.074 -6.019,-0.162 -9.002,-0.717 -3.034,-0.564 -6.361,-0.479 -9.486,-0.923 -2.535,-0.36 -4.975,-0.55 -7.49,-1.088 -4.024,-0.862 -8.871,-2.232 -12.105,-3.703 -0.921,-0.418 -2.722,-1.364 -3.266,-2.59 -0.187,-0.421 0.197,-1.03 -0.171,-1.224 -0.55,-0.29 -1.083,-0.599 -1.511,-1.058 -0.924,-0.99 -1.558,-2.143 -2.136,-3.362 -2.066,-4.362 -3.591,-8.249 -4.151,-13.147 -0.31,-2.711 -0.828,-5.405 -0.828,-8.078 0,-2.189 -0.539,-4.162 -0.697,-6.248 C 5.349,219.645 4.605,214.166 4.193,208.685 4.036,206.583 4.446,204.78 3.888,202.827 3.255,200.612 3.489,197.538 3.182,195.184 2.4,189.186 2.402,183.067 2.007,177.03 1.641,171.442 0.578,165.356 2.103,159.913 c 0.718,-2.564 0.892,-5.377 1.874,-7.794 1.198,-2.949 2.125,-5.999 3.438,-8.905 1.709,-3.784 4.212,-7.234 6.701,-10.554 3.258,-4.346 6.599,-8.685 10.021,-12.939 3.919,-4.873 8.91,-8.582 12.094,-14.095 6.315,-10.93 10.906,-22.841 13.075,-35.286 0.382,-2.189 0.883,-4.896 0.676,-6.959 -0.222,-2.214 0.142,-5.175 0.457,-7.368 0.672,-4.687 1.667,-9.411 1.785,-14.326 0.062,-2.577 0.13,-5.361 0.13,-7.773 0,-2.044 -1.207,-3.294 -1.35,-5.334 -0.082,-1.169 -0.47,-3.359 0.094,-4.282 0.614,-1.006 -0.143,-3.271 0.298,-4.558 0.398,-1.165 1.491,-1.801 1.479,-2.874 -0.006,-0.598 -0.533,-1.277 -0.697,-1.851 -0.434,-1.517 0.27,-2.853 0.001,-4.159 C 51.5,7.569 50.693,5.353 54.444,3.627 57.505,2.219 61.054,2.433 64.261,1.548 67.26,0.707 70.796,2.404 73.649,2.61"
   id="path15" />
	<path
   fill="#264f05"
   clip-rule="evenodd"
   fill-rule="evenodd"
   d="m 73.646,2.624 c 1.586,0.673 5.112,1.205 5.4,3.07 0.197,1.274 0.043,2.49 0.043,3.767 0,0.854 -0.397,1.289 -0.393,2.09 0.01,1.461 0.636,2.649 -0.13,4.18 -0.18,0.361 -0.803,0.63 -0.624,0.944 0.407,0.72 0.75,1.404 1.065,2.168 0.538,1.299 0.554,2.823 0.562,4.204 0.006,1.421 -0.137,2.808 -0.218,4.224 -0.101,1.768 -0.432,3.174 -0.697,4.877 -0.473,3.036 0.031,6.474 -0.039,9.555 -0.144,6.354 0.116,12.866 0.548,19.204 0.083,1.21 0.642,9.381 1.276,9.301 -0.569,1.055 0.344,3.347 0.618,4.366 0.833,3.09 1.722,6.29 2.779,9.308 1.018,2.906 1.865,6.065 3.1,8.883 1.228,2.808 2.989,5.018 4.738,7.403 2.571,3.503 4.67,6.968 8.013,9.754 2.278,1.899 3.899,4.612 5.816,6.877 2.012,2.377 4.424,3.995 6.351,6.424 1.742,2.197 3.863,4.088 5.66,6.245 0.759,0.91 1.608,2 2.102,3.082 0.707,1.546 1.814,2.541 2.902,3.838 3.607,4.302 6.226,10.534 7.433,15.961 1.342,6.041 0.538,12.205 0.45,18.313 -0.089,6.155 -0.236,12.294 -0.701,18.434 -0.221,2.914 -0.972,5.766 -1.229,8.658 -0.239,2.704 0.175,5.514 0.175,8.166 0,5.24 -1.347,10.624 -2.003,15.829 -0.786,6.223 -1.321,12.433 -2.612,18.594 -1.114,5.313 -1.567,10.952 -4.23,15.798 -1.68,3.055 -3.76,5.849 -7.048,6.977 -3.931,1.348 -8.764,2.068 -13.149,2.968 -5.473,1.122 -11.267,0.984 -16.789,1.407 -5.636,0.433 -11.372,-0.138 -17.142,0.211 -2.959,0.177 -6.08,-0.392 -9.069,-0.465 -3.024,-0.074 -6.019,-0.162 -9.002,-0.717 -3.034,-0.564 -6.361,-0.479 -9.486,-0.923 -2.535,-0.36 -4.975,-0.55 -7.49,-1.088 -4.024,-0.862 -8.871,-2.232 -12.105,-3.703 -0.921,-0.418 -2.722,-1.364 -3.266,-2.59 -0.187,-0.421 0.197,-1.03 -0.171,-1.224 -0.55,-0.29 -1.083,-0.599 -1.511,-1.058 -0.924,-0.99 -1.558,-2.143 -2.136,-3.362 -2.066,-4.362 -3.591,-8.249 -4.151,-13.147 -0.31,-2.711 -0.828,-5.405 -0.828,-8.078 0,-2.189 -0.539,-4.162 -0.697,-6.248 C 5.349,219.645 4.605,214.166 4.193,208.685 4.036,206.583 4.446,204.78 3.888,202.827 3.255,200.612 3.489,197.538 3.182,195.184 2.4,189.186 2.402,183.067 2.007,177.03 1.641,171.442 0.578,165.356 2.103,159.913 c 0.718,-2.564 0.892,-5.377 1.874,-7.794 1.198,-2.949 2.125,-5.999 3.438,-8.905 1.709,-3.784 4.212,-7.234 6.701,-10.554 3.258,-4.346 6.599,-8.685 10.021,-12.939 3.919,-4.873 8.91,-8.582 12.094,-14.095 6.315,-10.93 10.906,-22.841 13.075,-35.286 0.382,-2.189 0.883,-4.896 0.676,-6.959 -0.222,-2.214 0.142,-5.175 0.457,-7.368 0.672,-4.687 1.667,-9.411 1.785,-14.326 0.062,-2.577 0.13,-5.361 0.13,-7.773 0,-2.044 -1.207,-3.294 -1.35,-5.334 -0.082,-1.169 -0.47,-3.359 0.094,-4.282 0.614,-1.006 -0.143,-3.271 0.298,-4.558 0.398,-1.165 1.491,-1.801 1.479,-2.874 -0.006,-0.598 -0.533,-1.277 -0.697,-1.851 -0.434,-1.517 0.27,-2.853 0.001,-4.159 C 51.5,7.569 50.693,5.353 54.444,3.627 57.505,2.219 61.054,2.433 64.261,1.548 67.26,0.707 70.796,2.404 73.649,2.61"
   id="path17" />
	<path
   fill="#e8caac"
   clip-rule="evenodd"
   fill-rule="evenodd"
   d="m 76.868,5.847 c 0.44,1.579 -6.913,1.874 -8.142,1.959 -5.002,0.35 -9.781,0.143 -14.414,-1.916 1.146,-2.86 7.229,-2.598 9.596,-2.73 2.182,-0.121 4.522,-0.123 6.674,0.295 2.402,0.468 4.159,1.481 6.286,2.392"
   id="path19" />
	<path
   fill="#f5bc84"
   clip-rule="evenodd"
   fill-rule="evenodd"
   d="m 54.792,8.416 c 2.384,0.645 4.979,1.017 7.446,1.154 1.314,0.073 2.522,-0.394 3.854,-0.305 1.306,0.087 2.563,0.336 3.68,0.152 1.788,-0.294 3.845,0.015 5.574,-0.849 1.275,-0.639 3.173,-1.508 2.699,0.675 -0.461,2.128 -3.933,1.142 -4.071,2.525 -0.218,2.19 4.699,-0.539 3.984,2.352 -0.435,1.76 -3.256,0.567 -3.833,1.872 -0.554,1.257 0.447,1.271 1.176,1.481 0.65,0.187 2.012,1.328 2.526,1.263 0.904,2.921 0.741,5.937 0.5,8.948 -0.198,2.48 -1.278,3.076 -3.722,3.332 -4.186,0.439 -8.444,0.75 -12.618,0.577 -2.933,-0.122 -5.863,-0.522 -8.501,-1.884 -0.846,-0.436 -1.19,0.438 -1.069,-1.143 0.11,-1.419 -0.244,-2.807 -0.348,-4.213 -0.243,-3.279 0.233,-6.549 4.116,-6.401 2.609,0.1 5.066,1.034 7.708,0.74 1.147,-0.127 6.126,-0.439 6.228,-1.306 0.192,-1.647 -4.097,-0.99 -4.975,-0.881 -2.842,0.355 -5.76,0.176 -8.494,-0.695 -0.861,-0.274 -3.432,-0.395 -3.482,-1.503 -0.077,-1.702 0.66,-1.766 2.145,-1.625 1.558,0.148 3.032,0.127 4.595,0.315 1.359,0.164 7.615,0.946 8.556,-0.228 1.704,-2.128 -3.326,-1.319 -3.886,-1.295 -2.683,0.112 -5.554,0.261 -8.133,-0.512 -0.969,-0.291 -2.822,-0.273 -3.44,-1.241 -0.417,-0.653 -0.123,-1.84 -0.131,-2.569 0.61,0.457 1.467,0.795 1.916,1.264"
   id="path21" />
	<path
   fill="#cca352"
   clip-rule="evenodd"
   fill-rule="evenodd"
   d="m 59.755,20.043 c -0.185,0.583 -0.04,1.193 0.348,1.654 2.143,-1.618 3.02,1.854 2.178,3.331 -1.269,2.224 -1.97,-2.145 -2.526,-2.721 -1.034,1.683 0.559,4.533 -2.831,3.179 -2.331,-0.931 -1.249,-3.44 -1.002,-5.443 1.392,0.787 2.532,-1.549 3.833,0"
   id="path23" />
	<path
   fill="#cca352"
   clip-rule="evenodd"
   fill-rule="evenodd"
   d="m 59.103,28.273 c 2.999,0.554 6.369,0.441 9.057,0.479 1.931,0.027 3.806,-0.079 5.727,-0.304 0.793,-0.094 2.467,-0.824 2.199,0.479 -0.898,-0.225 -1.407,0.18 -2.222,0.392 -1.06,0.276 -1.953,0.261 -3.072,0.261 -2.408,0 -5.041,0.133 -7.291,0.13 -1.368,-0.001 -2.855,-0.175 -4.311,-0.305 -1.377,-0.122 -4.989,-0.136 -5.531,-1.611 1.853,-0.001 3.789,-0.076 5.444,0.479"
   id="path25" />
	<path
   fill="#d99e62"
   clip-rule="evenodd"
   fill-rule="evenodd"
   d="m 72.819,33.281 c 1.493,-0.522 3.167,-0.188 4.572,-1.002 1.228,2.78 -16.471,2.196 -18.618,1.788 -1.177,-0.225 -4.803,-0.111 -5.288,-1.613 -0.351,-1.085 2.084,-0.104 2.618,0.007 1.09,0.228 2.182,0.435 3.286,0.586 4.462,0.608 9.094,0.663 13.43,0.234"
   id="path27" />
	<path
   fill="#66523d"
   clip-rule="evenodd"
   fill-rule="evenodd"
   d="m 65.896,35.85 c 1.472,0.435 3.042,0.105 4.528,-0.088 1.285,-0.167 2.373,0.088 3.591,0.088 0.702,0 3.018,-0.986 3.506,-0.61 0.395,0.303 0.043,4.285 0.043,4.908 0,1.615 -0.043,3.23 -0.069,4.846 -0.052,3.07 -0.024,6.139 0.074,9.207 0.063,1.953 1.313,7.435 -0.048,8.56 -1.362,1.126 -4.283,1.477 -5.922,1.732 -2.938,0.459 -5.883,0.818 -8.861,0.728 -1.462,-0.044 -2.514,-0.567 -3.897,-0.806 -1.302,-0.224 -2.609,0.19 -3.898,-0.239 -0.872,-0.291 -3.151,-1.319 -3.418,-1.981 -0.436,-1.083 0.233,-3.864 0.336,-5.044 0.151,-1.723 0.339,-3.433 0.557,-5.148 0.687,-5.388 2.319,-12.104 0.936,-17.459 3.957,1.54 8.376,1.306 12.542,1.306"
   id="path29" />
	<path
   fill="#9c7c5c"
   clip-rule="evenodd"
   fill-rule="evenodd"
   d="m 58.971,37.287 c 0.368,2.866 0.35,5.655 0.218,8.535 -0.065,1.42 -0.075,2.85 -0.174,4.268 -0.114,1.632 -0.839,2.969 -0.937,4.638 -0.113,1.935 -0.125,4.712 -1.023,6.51 -0.853,1.709 -2.378,1.387 -2.199,-0.653 0.271,-3.072 0.608,-6.137 0.871,-9.21 0.211,-2.47 -0.006,-5.163 0.784,-7.534 0.279,-0.837 -0.096,-1.564 0.13,-2.395 0.276,-1.01 0.016,-1.924 0.022,-2.939 0.005,-0.869 -0.196,-1.539 0.784,-1.916 0.696,-0.268 1.418,-0.007 1.524,0.696"
   id="path31" />
	<path
   fill="#9c7c5c"
   clip-rule="evenodd"
   fill-rule="evenodd"
   d="m 61.89,43.558 c 0.248,1.647 -0.481,14.143 -2.352,13.957 -0.825,-0.083 0.631,-12.841 1.045,-14.262 0.383,0.123 0.999,0.199 1.307,0.305"
   id="path33" />
	<path
   fill="#ccadad"
   clip-rule="evenodd"
   fill-rule="evenodd"
   d="m 57.36,70.208 c 0.667,2.317 0.048,4.465 -0.131,6.793 -0.204,2.643 -0.642,5.228 -1.232,7.826 -0.489,2.153 -0.517,4.611 -3.079,4.868 -1.886,0.189 -2.339,-0.242 -1.916,-2.199 0.157,-0.725 0.611,-1.45 0.741,-2.134 0.074,-0.393 -0.254,-0.889 -0.044,-1.415 0.75,-1.871 0.411,-4.508 0.697,-6.51 0.243,-1.696 0.405,-6.201 1.938,-7.12 0.858,-0.516 2.124,-0.304 3.026,-0.109"
   id="path35" />
	<path
   fill="#ccadad"
   clip-rule="evenodd"
   fill-rule="evenodd"
   d="m 60.583,74.519 c 0.279,2.669 0.449,5.871 -0.569,8.413 -0.188,0.468 -0.766,3.613 -1.565,3.606 -1.398,-0.012 -0.288,-5.621 -0.184,-6.454 0.174,-1.392 0.466,-2.799 0.927,-4.126 0.273,-0.784 0.836,-0.984 1.391,-1.439"
   id="path37" />
	<path
   fill="#947b7b"
   clip-rule="evenodd"
   fill-rule="evenodd"
   d="m 79.438,86.146 c 1.14,3.881 2.869,7.752 4.601,11.412 0.211,0.444 1.412,2.389 1.234,2.827 -0.209,0.518 -1.221,0.467 -1.611,0.653 -1.183,0.564 -1.872,1.497 -2.917,0.13 -0.096,1.205 -0.924,2.134 -1.916,1.132 -0.102,1.568 -1.565,1.747 -2.156,0.37 -0.577,-1.347 -0.799,0.203 -1.241,0.109 -0.604,-0.128 -0.906,-0.432 -1.307,-0.958 -0.179,1.76 -1.324,0.234 -1.611,-0.522 -0.664,-1.757 -1.077,-3.742 -0.785,-5.617 -0.466,-0.008 -0.613,-1.319 -0.347,-1.982 0.6,-1.499 3.361,-1.536 2.742,-3.68 0.912,0.216 1.97,-1.943 2.57,-0.479 1.097,-0.972 0.636,-3.738 2.744,-3.386"
   id="path39" />
	<path
   fill="#ccadad"
   clip-rule="evenodd"
   fill-rule="evenodd"
   d="m 50.088,100.04 c 2.123,0.25 1.083,0.401 1.742,1.786 0.623,1.308 1.287,1.202 0.565,3.005 -0.74,1.848 -1.331,1.632 -3.135,1.35 -0.38,-0.06 -1.452,-0.493 -2.112,-0.588 -0.57,-0.082 -1.928,1.299 -2.222,-0.174 -0.094,-0.473 0.763,-2.315 1.068,-2.721 1.381,-1.843 1.14,-3.521 3.004,-4.747 -0.768,0.996 0.59,1.381 1.09,2.077"
   id="path41" />
	<path
   fill="#ccadad"
   clip-rule="evenodd"
   fill-rule="evenodd"
   d="m 56.707,106.79 c -0.348,0.691 -1.514,3.191 -2.699,2.134 -0.595,-0.53 0.991,-6.263 1.437,-6.793 0.21,-0.25 1.927,-0.839 2.265,-0.479 0.568,0.6 -0.827,4.55 -1.003,5.14"
   id="path43" />
	<path
   d="m 50.741,112.45 c 3.872,2.622 7.927,5.122 12.769,5.323 4.544,0.19 10.094,0.258 14.23,-1.579 1.988,-0.883 3.186,-2.628 5.138,-3.767 2.407,-1.404 4.009,-2.009 6.871,-1.579 2.853,0.427 3.521,1.596 4.843,4.018 1.357,2.489 0.656,5.9 -0.131,8.557 -2.488,8.405 -10.269,15.772 -18.376,18.289 -8.932,2.773 -18.387,0.656 -26.175,-4.263 -6.465,-4.083 -10.781,-11.241 -11.721,-18.763 -0.354,-2.833 0.75,-5.953 3.015,-7.848 3.489,-2.92 6.364,0.21 9.537,1.61"
   clip-rule="evenodd"
   fill-rule="evenodd"
   id="path45" />
	<path
   fill="#e3c381"
   clip-rule="evenodd"
   fill-rule="evenodd"
   d="m 47.214,111.62 c 1.335,1.404 3.812,2.615 5.487,3.592 2.233,1.303 4.445,2.435 6.987,3.04 2.166,0.516 5.016,-0.168 6.925,0.597 0.42,0.167 0.908,0.13 1.285,0.414 0.546,0.41 2.458,-0.479 3.31,-0.588 2.583,-0.329 6.111,-0.577 8.245,-2.118 2.254,-1.628 3.794,-4.019 6.604,-4.85 4.227,-1.25 8.133,2.374 8.1,6.401 -0.053,6.388 -2.863,11.182 -7.409,15.607 -3.89,3.787 -10.081,8.116 -15.79,7.896 -3.152,-0.122 -6.231,0.3 -9.353,-0.324 -2.078,-0.416 -3.932,-1.346 -5.919,-2.008 -4.864,-1.622 -10.017,-5.635 -12.612,-10.047 -2.421,-4.116 -5.252,-10.076 -3.438,-14.913 0.519,-1.382 2.792,-3.17 4.355,-3.571 1.33,-0.34 2.176,0.48 3.223,0.87"
   id="path47" />
	<path
   d="m 50.567,119.85 c 2.142,1.882 4.875,0.086 7.281,0.808 1.419,0.426 2.356,1.054 2.343,2.589 -0.014,1.55 -1.371,2.696 0.392,3.658 2.193,1.196 6.472,0.256 8.805,-0.133 1.477,-0.246 2.772,0.247 2.995,-1.218 0.159,-1.04 -0.683,-1.988 -0.152,-3.048 1.52,-3.04 5.102,-1.129 7.228,-0.523 1.489,0.424 1.907,-0.654 3.114,-0.914 1.868,-0.403 4.034,3.574 3.135,5.008 -1.56,2.486 -4.627,0.729 -6.271,2.351 3.377,1.798 -2.777,4.444 -4.093,4.855 -2.936,0.917 -7.18,2.471 -10.278,1.851 -2.164,-0.433 -4.141,-0.434 -6.183,-1.132 -1.617,-0.553 -9.141,-3.439 -6.532,-6.227 -2.283,-0.291 -5.603,-1.556 -5.834,-4.354 -0.086,-1.043 1.538,-2.589 2.22,-3.702 0.931,-1.54 1.42,-1.31 1.83,0.11"
   clip-rule="evenodd"
   fill-rule="evenodd"
   id="path49" />
	<path
   fill="#f5a990"
   clip-rule="evenodd"
   fill-rule="evenodd"
   d="m 54.443,121.81 c 1.516,-0.18 3.097,0.169 4.398,0.958 -1.109,0.621 -2.285,-0.938 -3.244,0.022 -0.925,0.925 -1.383,1.465 -1.96,2.7 -0.458,0.983 -1.078,1.849 -2.25,1.204 -1.023,-0.563 -2.49,-1.092 -2.931,-2.271 -0.635,-1.696 -0.436,-1.721 0.849,-3.745 1.342,1.06 3.621,2.06 5.138,1.13"
   id="path51" />
	<path
   fill="#f5a990"
   clip-rule="evenodd"
   fill-rule="evenodd"
   d="m 82.834,122.42 c 0.614,0.058 1.829,1.999 1.829,2.765 0,1.361 -2.431,1.591 -3.31,1.481 -0.585,-0.074 -1.619,0.297 -2.09,0.152 -0.546,-0.169 -1.141,-1.415 -1.742,-2.09 -1.486,-1.675 -2.208,-1.029 -4.05,-1.655 0.283,-0.562 1.861,-1.162 2.439,-1.132 1.109,0.057 2.3,1.003 3.484,1.132 1.199,0.14 2.442,0.01 3.44,-0.64"
   id="path53" />
	<path
   fill="#f5a990"
   clip-rule="evenodd"
   fill-rule="evenodd"
   d="m 59.103,124.2 c -0.145,0.194 0.012,0.521 -0.479,0.697 0.774,0.4 0.577,0.698 -0.305,0.587 -0.799,-0.1 -1.572,-0.844 -2.09,-1.415 0.987,-0.58 1.98,0.46 2.874,0.12"
   id="path55" />
	<path
   fill="#f5a990"
   clip-rule="evenodd"
   fill-rule="evenodd"
   d="m 75.911,125.34 c -0.73,0.541 -2.645,0.723 -2.613,-0.436 0.845,-0.13 2.467,-0.95 2.613,0.44"
   id="path57" />
	<path
   fill="#fccabb"
   clip-rule="evenodd"
   fill-rule="evenodd"
   d="m 57.187,126.82 c 5.931,2.586 14.247,2.413 20.03,-0.479 0.178,1.146 1.59,2.662 1.394,3.789 -0.15,0.866 -2.313,1.618 -3.353,2.003 -4.336,1.609 -8.989,2.114 -13.629,1.393 -2.198,-0.341 -3.712,-1.601 -5.706,-2.199 -1.453,-0.436 -2.533,-1.575 -2.308,-2.939 0.073,-0.437 1.089,-2.7 1.459,-2.7 0.831,0 1.53,0.62 2.113,1.14"
   id="path59" />
	<path
   fill="#ed9579"
   clip-rule="evenodd"
   fill-rule="evenodd"
   d="m 58.971,128.69 c 0.877,-0.38 2.274,0.925 3.223,1.132 0.337,0.073 0.622,0.078 0.958,0.021 0.575,-0.096 0.784,0.457 1.372,0.393 1.063,-0.118 2.112,-1.341 3.026,-0.197 0.331,-0.692 1.509,-0.493 2.134,-0.609 0.394,-0.073 0.828,-0.376 1.219,-0.392 0.476,-0.018 0.811,0.434 1.263,0.348 1.029,-0.195 1.421,-1.622 2.352,-0.174 0.666,1.035 -0.437,2.392 -1.35,1.437 -0.584,1.479 -4.774,1.939 -5.487,0.522 -0.057,1.433 -0.957,1.166 -1.829,1.089 -0.146,-0.013 -0.862,-0.462 -0.958,-0.479 -0.272,-0.048 -0.542,0.969 -1.092,0.568 -1.766,-1.292 -0.97,0.595 -2.545,0.281 -0.692,-0.138 -0.245,-0.892 -0.718,-1.197 -0.874,-0.566 -1.014,-0.215 -2.046,0.348 -0.643,-1.404 -3.67,-1.606 -2.265,-3.701 0.939,-1.4 2,-0.18 2.743,0.61"
   id="path61" />
	<path
   fill="#826b6b"
   clip-rule="evenodd"
   fill-rule="evenodd"
   d="m 106.52,128.91 c 1.245,-1.646 2.939,1.263 3.685,1.921 2.245,1.98 3.961,3.166 5.461,5.83 1.229,2.185 3.164,4.381 3.276,7.009 0.066,1.52 0.921,2.096 -0.141,3.312 -0.172,0.197 -0.757,-0.208 -0.959,0 -0.446,0.461 0.206,1.263 -0.522,1.611 -0.738,0.354 -1.286,-0.644 -1.524,-0.784 -0.925,-0.548 -2.019,-1.002 -1.676,0.719 0.319,1.604 -2.58,0.271 -2.983,-0.436 -0.77,-1.352 -0.848,0.211 -1.785,0.239 -0.989,0.03 -1.264,-0.979 -1.829,-1.523 -0.082,0.436 1.028,2.776 0.01,2.738 -1.228,-0.045 -2.617,0.08 -3.711,0.092 -0.639,0.007 -1.027,0.199 -1.611,-0.218 -0.54,2.115 -2.209,0.296 -2.682,-0.837 -0.931,-2.232 -1.775,-4.479 -2.541,-6.774 -0.267,-0.798 -0.771,-1.934 -0.524,-2.535 0.1,-0.244 1.233,0.095 0.979,-0.5 -0.422,-0.986 -1.111,-1.889 -1.372,-2.94 1.023,-0.291 3.209,0.909 3.396,-0.305 0.263,-1.71 -3.038,-2.809 1.132,-2.439 -0.692,-1.512 1.731,-2.713 2.875,-2.264 -0.005,-0.542 -0.109,-2.492 0.13,-2.7 0.4,-0.37 2.65,0.43 2.91,0.77"
   id="path63" />
	<path
   fill="#ccadad"
   clip-rule="evenodd"
   fill-rule="evenodd"
   d="m 34.585,133.92 c 0.698,0.251 1.428,0.702 2.177,0.74 0.843,0.042 1.514,-0.5 2.265,0 1.671,1.114 1.2,3.146 0.436,4.615 -1.3,2.496 -1.586,5.116 -2.09,7.882 -0.252,1.385 -0.735,2.941 -0.697,4.355 0.018,0.665 0.141,0.91 0.218,1.307 0.052,0.269 0.537,0.398 0.479,0.826 -0.162,1.196 -3.098,2.159 -4.18,2.004 -2.574,-0.369 -4.958,-1.308 -7.272,-2.222 -1.316,-0.52 -7.583,-1.103 -5.813,-4.137 1.323,-2.268 2.051,-4.887 3.331,-7.207 1.549,-2.807 3.654,-5.156 6.005,-7.319 0.959,-0.883 1.751,-2.255 3.161,-1.651 0.672,0.28 1.36,0.74 1.98,0.8"
   id="path65" />
	<path
   fill="#ccadad"
   clip-rule="evenodd"
   fill-rule="evenodd"
   d="m 47.214,137.62 c -0.1,0.813 -0.709,0.769 -1.002,1.307 -0.61,1.12 -0.899,2.695 -1.282,3.919 -0.774,2.477 -1.514,4.993 -1.744,7.591 -0.075,0.857 0.647,4.315 -0.175,4.667 -1.108,0.475 -2.823,0.854 -3.353,-0.522 -1.654,-4.299 0.485,-8.996 1.327,-13.208 0.28,-1.404 0.304,-3.604 1.525,-4.667 0.947,-0.83 4.125,-0.72 4.704,0.91"
   id="path67" />
	<path
   d="m 121.2,168.88 c 5.397,1.521 3.106,12.359 2.784,16.434 -0.235,2.985 -0.521,5.961 -0.629,8.954 -0.104,2.872 0.202,6.129 -0.383,8.937 -1.192,5.724 -1.306,11.51 -2.12,17.277 -0.354,2.497 -1.047,4.978 -1.568,7.446 -0.54,2.559 -0.555,5.343 -1.452,7.827 -3.735,10.343 -13.666,12.075 -23.694,13.007 -5.075,0.47 -9.909,1.288 -15.025,1.789 -3.181,0.311 -6.337,0.588 -9.538,0.588 -1.571,0 -3.12,-0.108 -4.68,-0.282 -1.633,-0.181 -3.405,0.3 -5.105,0.209 -2.859,-0.155 -5.717,-0.986 -8.562,-1.342 -1.056,-0.132 -2.74,0.252 -3.692,-0.13 -1.485,-0.593 -2.963,-1.022 -4.545,-1.285 -3.137,-0.521 -6.266,-0.686 -9.369,-1.441 -1.269,-0.309 -3.801,-1.581 -5.088,-1.259 -0.843,0.21 -3.028,-1.279 -3.744,-1.742 -1.356,-0.872 -2.183,-2.04 -3.316,-3.123 -2.531,-2.422 -3.82,-4.997 -4.831,-8.325 -0.849,-2.799 -0.863,-6.032 -1.007,-8.932 -0.143,-2.891 -0.688,-5.729 -0.688,-8.622 0,-11.172 -1.282,-22.181 -2.439,-33.356 -0.563,-5.433 0.247,-12.144 6.04,-14.516 5.99,-2.45 12.503,1.663 18.413,2.507 9.542,1.363 19.434,2.801 29.109,2.43 5.037,-0.193 10.11,-0.483 15.125,-1.011 2.47,-0.26 4.94,-0.545 7.394,-0.94 1.514,-0.243 3.717,-0.247 4.916,-1.098 -0.116,0.218 -0.231,0.436 -0.349,0.653 2.608,-0.38 5.225,-0.681 7.795,-1.001 2.747,-0.344 5.168,-1.521 7.795,-2.091 2.247,-0.487 3.988,-0.609 6.271,-0.609 1.41,0 1.747,-0.065 3.092,0.718 1.12,0.63 2.15,1.44 3.1,2.31"
   clip-rule="evenodd"
   fill-rule="evenodd"
   id="path69" />
	<path
   fill="#e3c381"
   clip-rule="evenodd"
   fill-rule="evenodd"
   d="m 123.33,174.2 c 0.41,2.006 0.44,7.551 -1.47,8.329 -2.444,0.996 -5.037,2.124 -7.717,2.208 -2.329,0.073 -4.424,-0.988 -6.663,-1.437 -1.277,-0.256 -2.385,-0.207 -3.68,-0.282 -1.632,-0.097 -3.154,-0.747 -4.813,-0.589 -5.208,0.499 -10.954,2.131 -15.721,4.311 -0.948,0.435 -2.208,1.578 -3.178,1.698 -1.448,0.182 -2.861,0.588 -4.311,0.74 -2.375,0.252 -5.305,0.75 -7.668,0.502 -1.342,-0.141 -2.211,-1.276 -3.479,-1.678 -1.345,-0.425 -2.941,-0.688 -4.355,-0.587 -1.274,0.092 -1.133,-1.723 -1.676,-2.81 -0.713,-1.425 -1.655,-2.166 -3.07,-2.743 -4.535,-1.852 -10.526,-2.715 -15.285,-0.958 -2.551,0.942 -3.78,3.208 -5.182,5.313 -0.345,0.519 -0.567,1.095 -0.567,1.721 0,0.27 -3.33,0.164 -3.831,0.152 -2.689,-0.063 -5.46,-0.535 -8.077,-1.058 -2.521,-0.505 -5.869,-1.371 -7.992,-2.818 -0.817,-0.556 -0.74,-0.358 -0.958,-1.741 -0.248,-1.567 -0.503,-3.203 -0.305,-4.79 0.274,-2.195 0.482,-5.775 2.205,-7.376 4.379,-4.068 10.659,-2.809 15.809,-1.092 4.89,1.631 9.926,1.635 14.994,2.479 5.786,0.965 11.195,1.287 17.048,1.177 3.048,-0.059 6.103,-0.142 9.145,-0.371 2.849,-0.215 5.842,0.004 8.601,-0.609 5.202,-1.156 10.687,-0.898 15.93,-1.914 4.896,-0.946 9.69,-2.039 14.552,-3.051 6.04,-1.25 8.72,2.93 11.71,7.28"
   id="path71" />
	<path
   fill="#e3c381"
   clip-rule="evenodd"
   fill-rule="evenodd"
   d="m 55.749,183.38 c 0.416,0.477 1.393,0.996 1.132,1.698 -0.375,1.015 -4.042,1.081 -5.007,1.132 -3.663,0.191 -7.758,-0.126 -11.278,-1.132 -0.865,-0.247 -1.484,-0.642 -1.829,-1.502 -0.271,-0.676 1.885,-1.301 2.481,-1.502 1.821,-0.618 3.789,-0.804 5.706,-0.684 2.799,0.17 6.254,0.67 8.795,1.98"
   id="path73" />
	<path
   fill="#fccabb"
   clip-rule="evenodd"
   fill-rule="evenodd"
   d="m 108.66,185.17 c 3.149,0.699 8.649,1.599 6.51,5.879 -1.509,3.018 -3.608,5.631 -4.42,8.97 -4.078,-4.077 -11.445,-4.188 -16.634,-2.024 -2.58,1.076 -4.895,1.824 -7.272,3.332 -2.514,1.591 -5.092,3.111 -7.45,4.926 -2.421,1.862 -4.865,3.739 -7.444,5.395 -2.368,1.52 -5.451,3.244 -8.186,3.929 -3.041,0.761 -6.078,0.688 -9.057,-0.336 -3.006,-1.033 -2.5,-4.279 -3.702,-6.685 -0.753,-1.51 -1.333,-3.111 -2.003,-4.66 7.954,2.673 14.948,-3.07 21.207,-7.402 3.665,-2.536 7.92,-3.657 11.366,-6.357 2.411,-1.89 4.581,-3.381 7.621,-4.224 2.62,-0.728 5.268,-1.659 7.929,-2.22 3.315,-0.71 8.515,0.34 11.535,1.47"
   id="path75" />
	<path
   fill="#bda4bd"
   clip-rule="evenodd"
   fill-rule="evenodd"
   d="m 122.64,184.21 c 0.9,4.991 -0.377,10.79 -0.641,15.824 -0.145,2.75 -0.343,5.587 -0.979,8.273 -0.346,1.462 -0.404,2.906 -0.493,4.403 -0.089,1.493 -0.609,3.058 -0.573,4.511 0.073,2.903 -0.345,5.7 -1.082,8.505 -0.687,2.606 -1.851,5.599 -1.851,8.304 0,1.307 -0.893,2.41 -1.698,3.349 -0.852,0.994 -1.197,2.38 -1.965,3.299 -1.835,2.202 -4.017,4.115 -6.766,5.062 -1.754,0.605 -3.457,0.421 -5.248,0.524 -1.13,0.064 -2.139,0.832 -3.004,0.826 -0.195,-1.185 -4.248,0.571 -5.29,0.787 -2.606,0.538 -5.32,0.938 -7.948,1.347 -4.236,0.662 -8.417,0.792 -12.662,0.709 -3.138,-0.063 -6.284,0.229 -9.423,0.289 -3.291,0.064 -6.168,-0.856 -9.356,-1.303 -2.879,-0.402 -5.123,0.062 -7.882,-1.132 -1.978,-0.854 -4.734,-0.528 -6.924,-0.893 -2.592,-0.433 -5.058,-1.122 -7.489,-1.807 -2.59,-0.729 -4.761,-1.188 -6.948,-3.063 -4.722,-4.048 -7.25,-8.754 -7.741,-14.999 -0.484,-6.168 -0.795,-12.251 -0.923,-18.43 -0.061,-2.919 -0.281,-5.831 -0.467,-8.744 -0.181,-2.841 0.038,-5.705 -0.23,-8.52 -0.169,-1.775 -0.412,-3.587 -0.761,-5.337 2.972,0.771 5.788,2.235 8.861,2.604 2.619,0.314 5.274,0.683 7.896,0.945 0.57,0.057 2.796,-0.188 3.013,0.152 0.599,0.945 -0.86,1.408 -1.505,1.685 -2.83,1.213 -5.332,1.322 -7.901,3.149 -1.23,0.875 -2.195,1.155 -2.025,3.027 0.198,2.164 1.208,4.265 1.832,6.343 0.782,2.607 0.983,5.142 1.465,7.793 0.52,2.864 4.946,2.266 6.871,1.388 1.442,-0.658 2.91,-1.39 1.764,-3.223 -0.444,-0.709 -1.197,-1.242 -1.197,-2.154 0,-1.021 2.033,-1.948 2.859,-2.224 2.694,-0.898 5.522,-0.593 6.308,2.549 0.441,1.77 1.031,3.971 1.022,5.836 -0.005,1.242 -0.246,2.518 -0.436,3.745 -0.094,0.607 -0.142,1.281 -0.304,1.872 -0.354,1.284 -0.149,1.034 -1.307,1.48 -2.859,1.101 -6.192,0.083 -8.182,3.134 -3.469,5.318 4.668,7.63 8.52,8.111 2.504,0.313 5.006,0.262 7.501,-0.063 0.892,-0.116 0.923,-0.454 1.871,-0.164 0.656,0.2 1.165,0.811 1.858,1.02 2.54,0.762 4.843,0.918 7.474,0.655 1.943,-0.194 4.615,-2.035 6.322,-1.087 0.593,0.328 1.27,0.719 1.96,0.719 0.797,0 1.284,-0.723 1.807,-0.785 0.937,-0.113 1.104,0.639 2.156,0.719 0.998,0.077 2.19,-0.563 3.157,-0.152 0.865,0.369 0.964,1.427 2.09,1.285 0.552,-0.069 1.37,-0.24 1.873,-0.458 1.102,-0.476 2.057,-1.386 1.96,-2.743 3.013,3.058 11.795,2.887 15.022,0.174 1.96,-1.646 2.879,-6.194 0.479,-7.75 0.522,0.043 1.044,0.086 1.567,0.13 -0.375,1.667 1.472,3.64 0.914,4.616 -0.207,0.364 -1.137,0.272 -1.459,1.023 -0.285,0.668 -0.322,1.419 -0.064,2.112 0.675,1.814 2.243,2.571 3.94,2.33 0.602,-0.087 1.18,-0.31 1.611,-0.742 0.915,-0.914 0.189,-0.695 1.546,-0.631 1.783,0.086 4.445,0.322 5.399,-1.611 0.569,-1.151 -0.018,-2.198 -0.043,-3.353 -0.035,-1.58 0.222,-0.998 1.415,-1.851 3.033,-2.165 0.808,-6.08 -2.417,-6.401 -1.209,-0.12 -1.381,1.306 -2.221,1.677 -2.316,1.024 -2.146,-3.948 -3.788,-4.965 -2.52,-1.557 -6.663,-0.133 -7.229,2.83 -0.654,-0.312 -1.264,-0.327 -1.612,-1.001 -0.261,-0.506 0.104,-1.808 -0.217,-2.525 -0.494,-1.104 -1.451,-1.841 -2.57,-2.265 -1.192,-0.452 -3.233,0.106 -3.701,-0.827 -2.123,-4.24 -9.86,0.495 -7.533,2.874 -0.159,0.059 -0.319,0.116 -0.479,0.175 -0.848,-2.528 -2.195,-2.91 -4.898,-2.286 -2.136,0.492 -3.981,3.187 -2.548,5.203 -0.547,0.386 -1.085,0.922 -1.72,1.176 -0.72,0.287 -0.828,-1.2 -1.025,-1.774 -0.405,-1.181 -1.213,-1.565 -2.219,-2.318 2.173,-1.494 4.47,-2.746 6.68,-4.175 2.812,-1.817 5.187,-4.236 8.082,-5.994 2.656,-1.611 5.355,-3.506 8.188,-4.745 2.438,-1.068 6.063,-2.623 8.797,-1.852 -0.817,2.788 -3.589,4.256 -4.679,6.871 -0.82,1.969 0.865,4.442 2.914,4.734 2.523,0.358 -0.025,1.238 0.806,2.634 0.352,0.592 2.849,0.336 3.571,0.218 1.445,-0.237 2.655,-0.85 3.179,-2.286 0.367,-1.01 0.233,-2.217 0.152,-3.265 -0.138,-1.782 0.216,-1.164 1.72,-1.112 1.32,0.048 3.294,-0.714 4.028,-1.938 0.506,-0.843 0.171,-2.055 0.414,-3.026 0.375,-1.499 0.856,-3.007 1.437,-4.441 0.585,-1.448 1.508,-2.432 2.438,-3.658 0.743,-0.979 1.03,-2.065 1.633,-3.069 1.121,-1.871 -0.688,-2.905 -1.938,-4.246 2.36,-0.48 5.08,-0.74 7.2,-1.59"
   id="path77" />
	<path
   fill="#e3c381"
   clip-rule="evenodd"
   fill-rule="evenodd"
   d="m 39.289,185.82 c 3.708,1.506 7.444,1.64 11.379,1.902 2.435,0.162 4.981,0.167 7.215,-1.075 0.145,1.017 0.29,2.032 0.435,3.048 -3.604,-1.268 -7.557,-1.003 -11.243,-1.372 -1.858,-0.186 -3.61,-0.425 -5.457,0.001 -1.865,0.43 -4.05,-0.745 -5.683,0.588 -0.652,-1.621 1.027,-2.795 1.437,-4.225 0.732,0.36 1.17,1.72 1.917,1.14"
   id="path79" />
	<path
   fill="#ed9579"
   clip-rule="evenodd"
   fill-rule="evenodd"
   d="m 110.22,188.39 c 0.114,1.235 -1.86,6.341 -3.005,6.685 -2.06,0.617 -4.746,-2.02 -6.844,-2.123 -2.565,-0.129 -5.354,0.783 -7.681,1.782 -2.468,1.057 -5.391,1.75 -7.728,3.019 -4.539,2.462 -9.139,6.134 -13.106,9.362 -2.034,1.654 -3.598,3.662 -6.023,4.764 -2.139,0.973 -5.747,3.115 -8.13,1.551 -0.985,-0.646 -1.577,-2.54 -1.808,-3.615 -0.165,-0.768 -0.71,-2.418 -0.152,-3.135 0.726,-0.932 0.678,-0.135 1.438,0.393 0.648,0.45 0.71,0.61 1.523,0.74 0.828,0.13 0.268,0.893 0.915,-0.24 0.817,-1.431 3.647,1.35 4.005,1.808 0.583,-0.723 -0.506,-1.325 -0.13,-1.916 0.41,-0.646 0.804,0.042 1.132,-0.131 0.364,-0.193 0.521,-0.338 0.871,-0.565 0.547,-0.357 0.885,-1.209 1.742,-1.22 0.621,-0.007 0.979,0.745 1.872,0.652 1.621,-0.168 6.238,-5.223 5.987,-6.466 -0.43,-2.138 1.471,-2.058 1.763,-0.196 1.113,-0.76 -0.184,-1.7 0.174,-2.612 0.352,-0.892 2.532,-1.876 3.224,-0.914 0.159,-0.689 0.462,-3.042 1.611,-1.786 -0.178,-1.725 1.671,-0.288 2.394,-1.132 0.451,0.507 1.961,-0.39 1.961,0.413 0,1.848 2.986,-0.017 3.613,-0.282 3.273,-1.39 6.913,-2.632 10.299,-3.114 1.642,-0.232 3.045,-0.876 4.615,-0.652 1.565,0.222 0.907,-0.396 1.938,-0.784 1.09,-0.41 2.39,-0.56 3.52,-0.28"
   id="path81" />
	<path
   fill="#ed9579"
   clip-rule="evenodd"
   fill-rule="evenodd"
   d="m 65.896,191.44 c 0.46,1.679 -0.389,3.511 -1.743,4.484 -1.876,1.351 -4.04,0.943 -6.27,1.35 1.392,-2.427 1.606,-4.395 2.177,-7.011 0.203,-0.931 -0.325,-0.891 0.914,-1.044 0.75,-0.095 1.51,-0.216 2.265,-0.131 1.396,0.15 2.632,0.97 2.657,2.35"
   id="path83" />
	<path
   fill="#cc7aa3"
   clip-rule="evenodd"
   fill-rule="evenodd"
   d="m 53.485,190.52 c 1.202,-0.464 2.708,0.038 3.701,0.784 -3.766,1.222 -7.567,1.751 -11.53,1.322 -2.285,-0.246 -6.781,-0.351 -8.458,-2.281 1.323,-1.554 5.936,-0.825 7.742,-0.676 2.855,0.25 5.87,-0.46 8.545,0.86"
   id="path85" />
	<path
   fill="#bda4bd"
   clip-rule="evenodd"
   fill-rule="evenodd"
   d="m 77.827,190.35 c -3.753,2.908 -8.16,4.969 -12.063,7.708 0.158,-1.585 1.082,-2.783 1.525,-4.267 0.16,-0.537 0.121,-2.958 0.334,-2.939 1.489,0.14 9.983,-0.97 10.204,-0.5"
   id="path87" />
	<path
   fill="#ed9579"
   clip-rule="evenodd"
   fill-rule="evenodd"
   d="m 34.455,194.23 c 0.78,3.557 2.804,6.347 5.183,9.188 -2.571,0.572 -5.218,1.172 -7.273,2.918 -0.429,-1.57 -0.633,-3.23 -0.402,-4.854 0.163,-1.141 1.738,-3.365 1.556,-4.27 -0.278,-1.389 -6.817,1.744 -7.903,1.502 -1.208,-0.269 -1.295,-0.812 -1.502,-1.851 -0.269,-1.347 1.643,-1.688 2.504,-2.198 1.578,-0.95 8.317,-4.48 7.837,-0.44"
   id="path89" />
	<path
   fill="#f5a990"
   clip-rule="evenodd"
   fill-rule="evenodd"
   d="m 63.936,199.54 c -4.068,2.2 -8.435,4.53 -13.195,3.396 -1.437,-0.342 -6.191,-1.815 -4.181,-4.049 1.622,-1.801 5.632,-0.366 7.534,-0.014 1.862,0.345 3.398,-0.161 5.204,-0.161 2.133,0 3.167,-0.473 4.986,-1.611 0.132,0.81 -0.116,1.7 -0.348,2.43"
   id="path91" />
	<path
   fill="#f5a990"
   clip-rule="evenodd"
   fill-rule="evenodd"
   d="m 103.96,198.41 c 2.015,-1.042 6.875,2.594 6.184,4.877 -0.469,1.546 -2.527,1.682 -3.789,1.22 -2.374,-0.871 -3.768,-2.588 -6.4,-3.049 0.216,-0.677 1.08,-3.239 1.742,-3.526 0.44,-0.19 1.78,0.39 2.27,0.48"
   id="path93" />
	<path
   fill="#fccabb"
   clip-rule="evenodd"
   fill-rule="evenodd"
   d="m 30.884,198.71 c -0.074,3.038 -0.247,5.862 0.598,8.824 0.189,0.657 2.056,3.382 1.906,3.652 -0.501,0.9 -1.791,1.22 -2.743,1.306 -1.235,0.114 -2.451,0.381 -3.245,-0.763 -0.627,-0.901 -0.653,-3.049 -0.761,-4.129 -0.261,-2.603 -1.332,-5.065 -1.982,-7.585 2.185,0.6 4.319,-0.91 6.227,-1.31"
   id="path95" />
	<path
   fill="#f5a990"
   clip-rule="evenodd"
   fill-rule="evenodd"
   d="m 103.96,204.98 c 0.265,0.793 0.175,1.653 0.175,2.481 -2.202,-0.774 -4.835,2.147 -6.75,1.132 -0.943,-0.499 -1.036,-2.406 -0.697,-3.265 1.352,-3.44 5.257,-2.04 7.267,-0.34"
   id="path97" />
	<path
   fill="#bda4bd"
   clip-rule="evenodd"
   fill-rule="evenodd"
   d="m 50.263,211.95 c 0.325,0.466 1.325,2.146 1.132,2.742 -0.276,0.85 -2.302,1.464 -3.048,1.61 -0.199,-2.563 0.235,-5.008 1.132,-7.402 0.097,1.1 1.202,1.87 0.784,3.05"
   id="path99" />
	<path
   fill="#ed9579"
   clip-rule="evenodd"
   fill-rule="evenodd"
   d="m 103.96,209.51 c 0.1,0.711 0.002,1.363 -0.61,1.785 -1.622,1.12 -2.743,0.321 -2.743,-1.219 -0.01,-1.69 2.67,-1.33 3.35,-0.57"
   id="path101" />
	<path
   d="m 87.494,213.39 c -0.121,1.112 -1.432,1.432 -1.394,2.612 -1.35,-0.846 -5.467,-1.13 -3.439,-3.267 1.335,-1.4 4.083,-0.89 4.833,0.66"
   fill="#3d5c99"
   id="path103" />
	<path
   d="m 79.133,214.82 c 0.578,1.479 -1.042,2.325 -0.957,3.744 -1.545,-0.462 -4.178,0.214 -4.399,-1.959 -0.289,-2.85 3.822,-2.86 5.356,-1.78"
   fill="#3d5c99"
   id="path105" />
	<path
   d="m 92.981,215 c 0.302,0.432 0.751,1.065 0.784,1.611 0.073,1.23 -0.277,1.108 -1.415,1.371 -1.764,0.408 -3.577,2.894 -4.639,0.98 -2.15,-3.88 2.247,-5.82 5.27,-3.96"
   fill="#3d5c99"
   id="path107" />
	<path
   d="m 86.057,219.05 c 1.385,0.547 0.19,2.798 -0.566,3.396 -1.189,0.942 -4.074,0.682 -5.225,-0.303 -1.599,-1.37 -0.957,-4.546 0.608,-5.531 1.593,-1.01 5.75,0.09 5.183,2.43"
   fill="#3d5c99"
   id="path109" />
	<path
   fill="#ff8257"
   clip-rule="evenodd"
   fill-rule="evenodd"
   d="m 61.541,217.44 c 1.397,-0.404 2.795,-0.807 4.193,-1.21 0.606,-0.176 1.243,0.737 1.751,1.101 1.779,1.271 1.922,3.267 0.407,4.971 -3.757,4.225 -9.75,4.209 -14.842,3.499 -3.322,-0.464 -7.47,-2.784 -5.269,-6.642 0.958,-1.68 4.356,-3.461 6.183,-2.547 2.283,1.14 5.241,1.17 7.577,0.83"
   id="path111" />
	<path
   fill="#fc5b26"
   clip-rule="evenodd"
   fill-rule="evenodd"
   d="m 52.352,217.92 c -1.03,0.285 -2.186,0.609 -2.873,1.48 -0.72,-1.82 3.209,-3.34 2.873,-1.48"
   id="path113" />
	<path
   d="m 104.13,218.57 c 0.146,0.463 0.204,0.948 0.173,1.438 -1.046,-0.225 -2.005,-0.011 -2.917,0.521 -0.356,0.208 -2.232,2.07 -2.352,1.981 -0.82,-0.613 -1.251,-1.037 -1.35,-2.068 -0.087,-0.903 0.358,-2.455 0.827,-2.982 0.713,-0.804 1.751,-0.578 2.7,-0.501 1.54,0.12 1.88,0.45 2.93,1.61"
   fill="#3d5c99"
   id="path115" />
	<path
   fill="#fc5b26"
   clip-rule="evenodd"
   fill-rule="evenodd"
   d="m 66.505,217.92 c 0.401,1.267 -0.96,1.111 -1.35,0.13 -0.548,-1.38 1.124,-1.01 1.35,-0.13"
   id="path117" />
	<path
   fill="#f5a990"
   clip-rule="evenodd"
   fill-rule="evenodd"
   d="m 56.881,218.35 c 0.593,1.102 2.061,-0.159 2.787,-0.306 2.036,-0.407 0.682,0.236 0.087,1.351 1.581,0.529 5.592,-0.787 6.009,0.783 -1.252,-0.077 -5.198,-0.332 -5.791,0.871 -0.787,1.593 1.969,1.928 1.611,3.179 -2.372,-0.28 -2.742,-3.585 -5.356,-2.089 -0.91,0.519 -1.987,2.588 -2.874,2.264 0.363,-0.929 2.908,-3.107 1.438,-4.094 -0.829,-0.556 -4.307,0.871 -5.618,0.522 1.263,-1.229 7.903,0.158 5.313,-2.917 0.783,-0.64 1.53,0.42 2.394,0.45"
   id="path119" />
	<path
   d="m 96.204,220.79 c 2.028,3.438 -4.572,4.938 -6.14,3.135 -2.802,-3.22 4.133,-6.73 6.14,-3.13"
   fill="#3d5c99"
   id="path121" />
	<path
   d="m 78.61,221.79 c 1.368,4.684 -4.854,6.055 -7.184,2.742 -2.953,-4.19 5.092,-6.84 7.184,-2.74"
   fill="#3d5c99"
   id="path123" />
	<path
   d="m 112.01,222.1 c 0.779,2.838 -2.075,4.119 -3.614,2.198 -0.619,-0.771 -0.824,-1.81 -0.131,-2.503 1.59,-1.61 2.36,-1.09 3.74,0.3"
   fill="#3d5c99"
   id="path125" />
	<path
   fill="#5c3d99"
   clip-rule="evenodd"
   fill-rule="evenodd"
   d="m 88.017,221.14 c -0.111,1.186 -0.055,2.64 0.783,3.57 -1.301,0.625 -2.857,0.173 -4.181,-0.174 1.03,-1.32 2.607,-2.07 3.398,-3.4"
   id="path127" />
	<path
   fill="#fc5b26"
   clip-rule="evenodd"
   fill-rule="evenodd"
   d="m 65.242,223.05 c -0.551,0.624 -1.391,1.007 -2.221,0.827 v -0.305 c 0.473,-0.3 4.404,-4.05 2.221,-0.53"
   id="path129" />
	<path
   d="m 106.52,223.05 c 0.744,1.885 -3.212,2.606 -3.701,4.527 -2.382,-0.872 -3.552,-3.415 -1.523,-5.441 1.65,-1.65 4.04,-0.3 5.22,0.91"
   fill="#3d5c99"
   id="path131" />
	<path
   fill="#fc5b26"
   clip-rule="evenodd"
   fill-rule="evenodd"
   d="m 52.048,223.88 c -0.218,1.672 -3.513,0.058 -3.223,-1.917 1.081,0.65 1.938,1.68 3.223,1.92"
   id="path133" />
	<path
   fill="#995c7a"
   clip-rule="evenodd"
   fill-rule="evenodd"
   d="m 39.419,224.49 c 0.079,0.73 -0.718,1.191 -0.392,1.741 0.355,0.601 1.664,0.256 2.003,0.914 0.743,1.445 -3.268,0.913 -3.919,0.263 -2.151,-2.14 0.637,-5.4 2.308,-2.91"
   id="path135" />
	<path
   fill="#fc5b26"
   clip-rule="evenodd"
   fill-rule="evenodd"
   d="m 68.769,225.49 c -1.593,-0.096 -2.616,1.143 -3.505,2.286 -1.723,2.22 0.325,3.881 -3.528,4.102 -4.708,0.27 -10.854,0.032 -13.346,-4.471 -0.406,-0.735 -0.9,-1.668 0.305,-1.656 0.4,0.006 2.109,1.197 2.58,1.407 1.322,0.589 2.278,0.912 3.734,0.945 5.413,0.123 10.269,-0.908 14.283,-4.703 0.317,0.88 -0.817,1.27 -0.523,2.09"
   id="path137" />
	<path
   fill="#fc5b26"
   clip-rule="evenodd"
   fill-rule="evenodd"
   d="m 59.755,224.18 c -0.024,1.612 -3.278,1.558 -4.006,0.349 0.937,-0.3 3.214,-0.53 4.006,-0.35"
   id="path139" />
	<path
   fill="#ffe88f"
   clip-rule="evenodd"
   fill-rule="evenodd"
   d="m 96.682,225.32 c -0.488,3.896 -5.864,6.807 -9.422,6.425 -2.795,-0.3 -6.781,-3.029 -6.69,-6.251 1.621,0.594 3.434,0.208 5.007,0.958 -0.384,0.191 -4.444,2.073 -2.024,2.417 1.315,0.188 2.215,-1.521 3.288,-1.415 -0.249,0.379 -1.904,2.668 -0.915,3.049 0.681,0.261 1.512,-2.034 1.742,-2.396 0.543,0.688 1.763,2.777 2.352,2.352 1.073,-0.773 -0.71,-2.088 -1.045,-2.875 0.752,0.29 2.956,1.637 3.656,1.178 0.457,-0.3 0.645,-0.62 0.219,-1.046 -0.713,-0.714 -1.841,-0.253 -2.569,-1.09 2.067,-0.76 4.254,-0.89 6.401,-1.3"
   id="path141" />
	<path
   fill="#5c3d99"
   clip-rule="evenodd"
   fill-rule="evenodd"
   d="m 71.034,226.14 c -0.799,0.84 -0.729,-0.82 0,0"
   id="path143" />
	<path
   fill="#e3c342"
   clip-rule="evenodd"
   fill-rule="evenodd"
   d="m 82.661,226.93 c -0.097,0.781 -1.005,0.387 -1.219,-0.349 -0.43,-1.47 1.059,-0.04 1.219,0.35"
   id="path145" />
	<path
   fill="#e3c342"
   clip-rule="evenodd"
   fill-rule="evenodd"
   d="m 95.115,226.32 c 0.168,1.065 -1.044,1.007 -1.438,1.784 -0.214,-0.104 -0.575,-0.447 -0.696,-0.653 0.522,-0.66 1.241,-2.03 2.134,-1.13"
   id="path147" />
	<path
   d="m 109.57,227.58 c 0.389,1.507 0.423,3.144 -1.198,3.789 -1.342,0.535 -3.346,-0.066 -4.115,-1.349 -0.466,-0.778 -0.324,-1.636 -0.022,-2.439 0.381,-1.011 1.176,-0.274 1.656,-0.914 1.04,-1.41 3.1,-0.28 3.67,0.91"
   fill="#3d5c99"
   id="path149" />
	<path
   fill="#5c3d99"
   clip-rule="evenodd"
   fill-rule="evenodd"
   d="m 79.743,228.19 c -0.839,-0.027 -2.004,-0.471 -1.699,-1.307 0.627,-1.71 1.665,0.88 1.699,1.31"
   id="path151" />
	<path
   d="m 76.695,227.76 c 0.206,1.29 -2.646,2.174 -1.742,4.049 -3.471,0.45 -2.532,-1.852 -3.397,-4.354 1.538,-0.54 3.451,0.58 5.139,0.3"
   fill="#3d5c99"
   id="path153" />
	<path
   d="m 68.334,227.28 c 0.378,0.491 1.35,0.784 2.045,1.481 0.584,0.583 -0.63,2.98 -1.545,2.851 -0.941,-0.134 -2.766,-0.743 -2.766,-1.915 0.001,-1.14 1.158,-2.41 2.266,-2.42"
   fill="#3d5c99"
   id="path155" />
	<path
   fill="#ffcc00"
   clip-rule="evenodd"
   fill-rule="evenodd"
   d="m 95.115,230.63 c -0.16,0.014 -0.319,0.029 -0.479,0.043 0.707,-0.981 2.08,-1.369 2.22,-2.743 -0.298,1.03 -0.552,2.54 -1.741,2.7"
   id="path157" />
	<path
   fill="#e3c342"
   clip-rule="evenodd"
   fill-rule="evenodd"
   d="m 84.925,229.67 c -1.292,1.94 -1.042,-2.17 0,0"
   id="path159" />
	<path
   d="m 103,230.46 c 0.426,0.836 -0.028,1.684 -0.871,2.003 -1.264,0.479 -1.373,-0.415 -2.155,-1.198 -0.687,-0.686 -0.326,-1.938 0.676,-2.198 1.03,-0.26 1.8,0.88 2.35,1.4"
   fill="#3d5c99"
   id="path161" />
	<path
   fill="#e3c342"
   clip-rule="evenodd"
   fill-rule="evenodd"
   d="m 91.849,229.19 c 0.284,2.07 -2.653,-0.51 0,0"
   id="path163" />
	<path
   d="m 80.439,230.8 c 0.671,3.105 -4.213,2.587 -3.875,-0.651 0.965,0.193 1.137,-0.959 2.199,-0.654 0.755,0.21 1.507,0.62 1.676,1.3"
   fill="#3d5c99"
   id="path165" />
	<path
   fill="#e3c342"
   clip-rule="evenodd"
   fill-rule="evenodd"
   d="m 88.322,230.63 c -0.324,0.214 -1.404,0.417 -1.089,-0.306 0.208,-0.47 1.642,-0.61 1.089,0.31"
   id="path167" />
	<path
   fill="#ffffcc"
   clip-rule="evenodd"
   fill-rule="evenodd"
   d="m 85.839,226.23 c -1.05,0.467 -3.042,0.87 -3.156,2.072 -0.164,1.715 3.313,-0.321 3.767,-0.547 -0.428,0.672 -1.396,2.088 -0.48,2.677 0.575,0.37 1.474,-1.679 1.786,-2.199 0.379,0.612 1.342,3.133 2.481,2.526 1.268,-0.675 -0.691,-2.483 -1.088,-3.004 1.48,0.624 2.599,1.304 4.224,1.088 -0.214,-2.81 -5.587,-2.53 -7.534,-2.62"
   id="path169" />
	<path
   fill="#ffe88f"
   clip-rule="evenodd"
   fill-rule="evenodd"
   d="m 86.057,226.32 c -0.363,0.286 -0.674,0.673 -1.001,1 1.242,-0.135 1.911,-0.432 1.915,1.133 0.188,-0.438 0.577,-0.79 0.784,-1.22 0.227,0.374 0.598,0.694 0.785,1.089 -0.136,-0.392 -0.085,-0.859 -0.176,-1.263 0.449,0.101 0.955,0.038 1.394,0.174 -0.956,-1.36 -2.357,-0.48 -3.701,-0.91"
   id="path171" />
	<path
   fill="#fc5b26"
   clip-rule="evenodd"
   fill-rule="evenodd"
   d="m 61.758,221.83 c 0.898,-1.693 2.069,0.605 -0.304,0.522 0.102,-0.17 0.203,-0.34 0.304,-0.52"
   id="path173" />
	<path
   fill="#fc5b26"
   clip-rule="evenodd"
   fill-rule="evenodd"
   d="m 56.838,222.71 c 0.588,0.178 0.734,0.504 1.307,0.043 0.839,1.205 -1.382,1.182 -1.873,0 -0.077,-0.01 0.84,-0.02 0.566,-0.04"
   id="path175" />
	<path
   fill="#fc5b26"
   clip-rule="evenodd"
   fill-rule="evenodd"
   d="m 52.352,221.62 c 0.102,0.517 0.411,0.862 0.915,1.045 -0.649,0.813 -1.457,0.275 -1.698,-0.609 0.248,-0.1 0.58,-0.38 0.783,-0.43"
   id="path177" />
	<path
   fill="#ffccbd"
   clip-rule="evenodd"
   fill-rule="evenodd"
   d="m 56.446,219.74 c -0.209,-0.29 -0.351,-0.644 -0.523,-0.959 0.976,0.95 1.971,0.361 3.092,0.044 -0.167,0.246 -0.16,0.609 -0.305,0.871 0.459,0.044 0.935,0.27 1.394,0.261 -0.932,0.351 -1.86,0.423 -1.001,1.567 -1.66,-1.521 -1.477,-1.521 -3.136,0 0.203,-0.464 0.406,-0.929 0.61,-1.394 -0.424,-0.015 -0.886,-0.169 -1.307,-0.129 0.39,-0.08 0.781,-0.2 1.176,-0.26"
   id="path179" />
	<path
   fill="#995c7a"
   clip-rule="evenodd"
   fill-rule="evenodd"
   d="m 37.852,192.53 c 1.105,0.338 2.211,0.677 3.316,1.015 0.845,0.258 0.256,1.672 0.385,2.426 0.309,1.811 1.074,3.723 1.611,5.486 -3.99,-1.23 -5.952,-4.95 -5.312,-8.93"
   id="path181" />
	<path
   fill="#d1b2a1"
   clip-rule="evenodd"
   fill-rule="evenodd"
   d="m 123.33,174.2 c 0.41,2.006 0.44,7.551 -1.47,8.329 -2.444,0.996 -5.037,2.124 -7.717,2.208 -2.329,0.073 -4.424,-0.988 -6.663,-1.437 -1.277,-0.256 -2.385,-0.207 -3.68,-0.282 -1.632,-0.097 -3.154,-0.747 -4.813,-0.589 -5.208,0.499 -10.954,2.131 -15.721,4.311 -0.948,0.435 -2.208,1.578 -3.178,1.698 -1.448,0.182 -2.861,0.588 -4.311,0.74 -2.375,0.252 -5.305,0.75 -7.668,0.502 -1.342,-0.141 -2.211,-1.276 -3.479,-1.678 -1.345,-0.425 -2.941,-0.688 -4.355,-0.587 -1.274,0.092 -1.133,-1.723 -1.676,-2.81 -0.713,-1.425 -1.655,-2.166 -3.07,-2.743 -4.535,-1.852 -10.526,-2.715 -15.285,-0.958 -2.551,0.942 -3.78,3.208 -5.182,5.313 -0.345,0.519 -0.567,1.095 -0.567,1.721 0,0.27 -3.33,0.164 -3.831,0.152 -2.689,-0.063 -5.46,-0.535 -8.077,-1.058 -2.521,-0.505 -5.869,-1.371 -7.992,-2.818 -0.817,-0.556 -0.74,-0.358 -0.958,-1.741 -0.248,-1.567 -0.503,-3.203 -0.305,-4.79 0.274,-2.195 0.482,-5.775 2.205,-7.376 4.379,-4.068 10.659,-2.809 15.809,-1.092 4.89,1.631 9.926,1.635 14.994,2.479 5.786,0.965 11.195,1.287 17.048,1.177 3.048,-0.059 6.103,-0.142 9.145,-0.371 2.849,-0.215 5.842,0.004 8.601,-0.609 5.202,-1.156 10.687,-0.898 15.93,-1.914 4.896,-0.946 9.69,-2.039 14.552,-3.051 6.04,-1.25 8.72,2.93 11.71,7.28"
   id="path183" />
	<path
   fill="#c7abb1"
   clip-rule="evenodd"
   fill-rule="evenodd"
   d="m 122.64,184.21 c 0.9,4.991 -0.377,10.79 -0.641,15.824 -0.145,2.75 -0.343,5.587 -0.979,8.273 -0.346,1.462 -0.404,2.906 -0.493,4.403 -0.089,1.493 -0.609,3.058 -0.573,4.511 0.073,2.903 -0.345,5.7 -1.082,8.505 -0.687,2.606 -1.851,5.599 -1.851,8.304 0,1.307 -0.893,2.41 -1.698,3.349 -0.852,0.994 -1.197,2.38 -1.965,3.299 -1.835,2.202 -4.017,4.115 -6.766,5.062 -1.754,0.605 -3.457,0.421 -5.248,0.524 -1.13,0.064 -2.139,0.832 -3.004,0.826 -0.195,-1.185 -4.248,0.571 -5.29,0.787 -2.606,0.538 -5.32,0.938 -7.948,1.347 -4.236,0.662 -8.417,0.792 -12.662,0.709 -3.138,-0.063 -6.284,0.229 -9.423,0.289 -3.291,0.064 -6.168,-0.856 -9.356,-1.303 -2.879,-0.402 -5.123,0.062 -7.882,-1.132 -1.978,-0.854 -4.734,-0.528 -6.924,-0.893 -2.592,-0.433 -5.058,-1.122 -7.489,-1.807 -2.59,-0.729 -4.761,-1.188 -6.948,-3.063 -4.722,-4.048 -7.25,-8.754 -7.741,-14.999 -0.484,-6.168 -0.795,-12.251 -0.923,-18.43 -0.061,-2.919 -0.281,-5.831 -0.467,-8.744 -0.181,-2.841 0.038,-5.705 -0.23,-8.52 -0.169,-1.775 -0.412,-3.587 -0.761,-5.337 2.972,0.771 5.788,2.235 8.861,2.604 2.619,0.314 5.274,0.683 7.896,0.945 0.57,0.057 2.796,-0.188 3.013,0.152 0.599,0.945 -0.86,1.408 -1.505,1.685 -2.83,1.213 -5.332,1.322 -7.901,3.149 -1.23,0.875 -2.195,1.155 -2.025,3.027 0.198,2.164 1.208,4.265 1.832,6.343 0.782,2.607 0.983,5.142 1.465,7.793 0.52,2.864 4.946,2.266 6.871,1.388 1.442,-0.658 2.91,-1.39 1.764,-3.223 -0.444,-0.709 -1.197,-1.242 -1.197,-2.154 0,-1.021 2.033,-1.948 2.859,-2.224 2.694,-0.898 5.522,-0.593 6.308,2.549 0.441,1.77 1.031,3.971 1.022,5.836 -0.005,1.242 -0.246,2.518 -0.436,3.745 -0.094,0.607 -0.142,1.281 -0.304,1.872 -0.354,1.284 -0.149,1.034 -1.307,1.48 -2.859,1.101 -6.192,0.083 -8.182,3.134 -3.469,5.318 4.668,7.63 8.52,8.111 2.504,0.313 5.006,0.262 7.501,-0.063 0.892,-0.116 0.923,-0.454 1.871,-0.164 0.656,0.2 1.165,0.811 1.858,1.02 2.54,0.762 4.843,0.918 7.474,0.655 1.943,-0.194 4.615,-2.035 6.322,-1.087 0.593,0.328 1.27,0.719 1.96,0.719 0.797,0 1.284,-0.723 1.807,-0.785 0.937,-0.113 1.104,0.639 2.156,0.719 0.998,0.077 2.19,-0.563 3.157,-0.152 0.865,0.369 0.964,1.427 2.09,1.285 0.552,-0.069 1.37,-0.24 1.873,-0.458 1.102,-0.476 2.057,-1.386 1.96,-2.743 3.013,3.058 11.795,2.887 15.022,0.174 1.96,-1.646 2.879,-6.194 0.479,-7.75 0.522,0.043 1.044,0.086 1.567,0.13 -0.375,1.667 1.472,3.64 0.914,4.616 -0.207,0.364 -1.137,0.272 -1.459,1.023 -0.285,0.668 -0.322,1.419 -0.064,2.112 0.675,1.814 2.243,2.571 3.94,2.33 0.602,-0.087 1.18,-0.31 1.611,-0.742 0.915,-0.914 0.189,-0.695 1.546,-0.631 1.783,0.086 4.445,0.322 5.399,-1.611 0.569,-1.151 -0.018,-2.198 -0.043,-3.353 -0.035,-1.58 0.222,-0.998 1.415,-1.851 3.033,-2.165 0.808,-6.08 -2.417,-6.401 -1.209,-0.12 -1.381,1.306 -2.221,1.677 -2.316,1.024 -2.146,-3.948 -3.788,-4.965 -2.52,-1.557 -6.663,-0.133 -7.229,2.83 -0.654,-0.312 -1.264,-0.327 -1.612,-1.001 -0.261,-0.506 0.104,-1.808 -0.217,-2.525 -0.494,-1.104 -1.451,-1.841 -2.57,-2.265 -1.192,-0.452 -3.233,0.106 -3.701,-0.827 -2.123,-4.24 -9.86,0.495 -7.533,2.874 -0.159,0.059 -0.319,0.116 -0.479,0.175 -0.848,-2.528 -2.195,-2.91 -4.898,-2.286 -2.136,0.492 -3.981,3.187 -2.548,5.203 -0.547,0.386 -1.085,0.922 -1.72,1.176 -0.72,0.287 -0.828,-1.2 -1.025,-1.774 -0.405,-1.181 -1.213,-1.565 -2.219,-2.318 2.173,-1.494 4.47,-2.746 6.68,-4.175 2.812,-1.817 5.187,-4.236 8.082,-5.994 2.656,-1.611 5.355,-3.506 8.188,-4.745 2.438,-1.068 6.063,-2.623 8.797,-1.852 -0.817,2.788 -3.589,4.256 -4.679,6.871 -0.82,1.969 0.865,4.442 2.914,4.734 2.523,0.358 -0.025,1.238 0.806,2.634 0.352,0.592 2.849,0.336 3.571,0.218 1.445,-0.237 2.655,-0.85 3.179,-2.286 0.367,-1.01 0.233,-2.217 0.152,-3.265 -0.138,-1.782 0.216,-1.164 1.72,-1.112 1.32,0.048 3.294,-0.714 4.028,-1.938 0.506,-0.843 0.171,-2.055 0.414,-3.026 0.375,-1.499 0.856,-3.007 1.437,-4.441 0.585,-1.448 1.508,-2.432 2.438,-3.658 0.743,-0.979 1.03,-2.065 1.633,-3.069 1.121,-1.871 -0.688,-2.905 -1.938,-4.246 2.36,-0.48 5.08,-0.74 7.2,-1.59"
   id="path185" />
	<path
   fill="#d4a7a1"
   clip-rule="evenodd"
   fill-rule="evenodd"
   d="m 34.455,194.23 c 0.78,3.557 2.804,6.347 5.183,9.188 -2.571,0.572 -5.218,1.172 -7.273,2.918 -0.429,-1.57 -0.633,-3.23 -0.402,-4.854 0.163,-1.141 1.738,-3.365 1.556,-4.27 -0.278,-1.389 -6.817,1.744 -7.903,1.502 -1.208,-0.269 -1.295,-0.812 -1.502,-1.851 -0.269,-1.347 1.643,-1.688 2.504,-2.198 1.578,-0.95 8.317,-4.48 7.837,-0.44"
   id="path187" />
	<path
   fill="#d9b6b2"
   clip-rule="evenodd"
   fill-rule="evenodd"
   d="m 30.884,198.71 c -0.074,3.038 -0.247,5.862 0.598,8.824 0.189,0.657 2.056,3.382 1.906,3.652 -0.501,0.9 -1.791,1.22 -2.743,1.306 -1.235,0.114 -2.451,0.381 -3.245,-0.763 -0.627,-0.901 -0.653,-3.049 -0.761,-4.129 -0.261,-2.603 -1.332,-5.065 -1.982,-7.585 2.185,0.6 4.319,-0.91 6.227,-1.31"
   id="path189" />
	<path
   fill="#d1b2a1"
   clip-rule="evenodd"
   fill-rule="evenodd"
   d="m 123.33,174.2 c 0.41,2.006 0.44,7.551 -1.47,8.329 -2.444,0.996 -5.037,2.124 -7.717,2.208 -2.329,0.073 -4.424,-0.988 -6.663,-1.437 -1.277,-0.256 -2.385,-0.207 -3.68,-0.282 -1.632,-0.097 -3.154,-0.747 -4.813,-0.589 -5.208,0.499 -10.954,2.131 -15.721,4.311 -0.948,0.435 -2.208,1.578 -3.178,1.698 -1.448,0.182 -2.861,0.588 -4.311,0.74 -2.375,0.252 -5.305,0.75 -7.668,0.502 -1.342,-0.141 -2.211,-1.276 -3.479,-1.678 -1.345,-0.425 -2.941,-0.688 -4.355,-0.587 -1.274,0.092 -1.133,-1.723 -1.676,-2.81 -0.713,-1.425 -1.655,-2.166 -3.07,-2.743 -4.535,-1.852 -10.526,-2.715 -15.285,-0.958 -2.551,0.942 -3.78,3.208 -5.182,5.313 -0.345,0.519 -0.567,1.095 -0.567,1.721 0,0.27 -3.33,0.164 -3.831,0.152 -2.689,-0.063 -5.46,-0.535 -8.077,-1.058 -2.521,-0.505 -5.869,-1.371 -7.992,-2.818 -0.817,-0.556 -0.74,-0.358 -0.958,-1.741 -0.248,-1.567 -0.503,-3.203 -0.305,-4.79 0.274,-2.195 0.482,-5.775 2.205,-7.376 4.379,-4.068 10.659,-2.809 15.809,-1.092 4.89,1.631 9.926,1.635 14.994,2.479 5.786,0.965 11.195,1.287 17.048,1.177 3.048,-0.059 6.103,-0.142 9.145,-0.371 2.849,-0.215 5.842,0.004 8.601,-0.609 5.202,-1.156 10.687,-0.898 15.93,-1.914 4.896,-0.946 9.69,-2.039 14.552,-3.051 6.04,-1.25 8.72,2.93 11.71,7.28"
   id="path191" />
	<path
   fill="#d1b2a1"
   clip-rule="evenodd"
   fill-rule="evenodd"
   d="m 55.749,183.38 c 0.416,0.477 1.393,0.996 1.132,1.698 -0.375,1.015 -4.042,1.081 -5.007,1.132 -3.663,0.191 -7.758,-0.126 -11.278,-1.132 -0.865,-0.247 -1.484,-0.642 -1.829,-1.502 -0.271,-0.676 1.885,-1.301 2.481,-1.502 1.821,-0.618 3.789,-0.804 5.706,-0.684 2.799,0.17 6.254,0.67 8.795,1.98"
   id="path193" />
	<path
   fill="#d1b2a1"
   clip-rule="evenodd"
   fill-rule="evenodd"
   d="m 39.289,185.82 c 3.708,1.506 7.444,1.64 11.379,1.902 2.435,0.162 4.981,0.167 7.215,-1.075 0.145,1.017 0.29,2.032 0.435,3.048 -3.604,-1.268 -7.557,-1.003 -11.243,-1.372 -1.858,-0.186 -3.61,-0.425 -5.457,0.001 -1.865,0.43 -4.05,-0.745 -5.683,0.588 -0.652,-1.621 1.027,-2.795 1.437,-4.225 0.732,0.36 1.17,1.72 1.917,1.14"
   id="path195" />
	<path
   fill="#cc9fab"
   clip-rule="evenodd"
   fill-rule="evenodd"
   d="m 53.485,190.52 c 1.202,-0.464 2.708,0.038 3.701,0.784 -3.766,1.222 -7.567,1.751 -11.53,1.322 -2.285,-0.246 -6.781,-0.351 -8.458,-2.281 1.323,-1.554 5.936,-0.825 7.742,-0.676 2.855,0.25 5.87,-0.46 8.545,0.86"
   id="path197" />
	<path
   fill="#d4a7a1"
   clip-rule="evenodd"
   fill-rule="evenodd"
   d="m 34.455,194.23 c 0.78,3.557 2.804,6.347 5.183,9.188 -2.571,0.572 -5.218,1.172 -7.273,2.918 -0.429,-1.57 -0.633,-3.23 -0.402,-4.854 0.163,-1.141 1.738,-3.365 1.556,-4.27 -0.278,-1.389 -6.817,1.744 -7.903,1.502 -1.208,-0.269 -1.295,-0.812 -1.502,-1.851 -0.269,-1.347 1.643,-1.688 2.504,-2.198 1.578,-0.95 8.317,-4.48 7.837,-0.44"
   id="path199" />
	<path
   fill="#d9b6b2"
   clip-rule="evenodd"
   fill-rule="evenodd"
   d="m 30.884,198.71 c -0.074,3.038 -0.247,5.862 0.598,8.824 0.189,0.657 2.056,3.382 1.906,3.652 -0.501,0.9 -1.791,1.22 -2.743,1.306 -1.235,0.114 -2.451,0.381 -3.245,-0.763 -0.627,-0.901 -0.653,-3.049 -0.761,-4.129 -0.261,-2.603 -1.332,-5.065 -1.982,-7.585 2.185,0.6 4.319,-0.91 6.227,-1.31"
   id="path201" />
	<path
   fill="#bf95a1"
   clip-rule="evenodd"
   fill-rule="evenodd"
   d="m 39.419,224.49 c 0.079,0.73 -0.718,1.191 -0.392,1.741 0.355,0.601 1.664,0.256 2.003,0.914 0.743,1.445 -3.268,0.913 -3.919,0.263 -2.151,-2.14 0.637,-5.4 2.308,-2.91"
   id="path203" />
	<path
   fill="#bf95a1"
   clip-rule="evenodd"
   fill-rule="evenodd"
   d="m 37.852,192.53 c 1.105,0.338 2.211,0.677 3.316,1.015 0.845,0.258 0.256,1.672 0.385,2.426 0.309,1.811 1.074,3.723 1.611,5.486 -3.99,-1.23 -5.952,-4.95 -5.312,-8.93"
   id="path205" />
</g>
<metadata
   id="metadata441"><rdf:RDF><cc:Work><dc:format>image/svg+xml</dc:format><dc:type
         rdf:resource="http://purl.org/dc/dcmitype/StillImage" /><cc:license
         rdf:resource="http://creativecommons.org/publicdomain/zero/1.0/" /><dc:publisher><cc:Agent
           rdf:about="http://openclipart.org/"><dc:title>Openclipart</dc:title></cc:Agent></dc:publisher><dc:title>Architetto -- ontologia del vino</dc:title><dc:date>2010-03-19T12:59:55</dc:date><dc:description>Drawing by Francesco 'Architetto' Rollandin. From OCAL 0.18 release.</dc:description><dc:source>http://openclipart.org/detail/32503/architetto----ontologia-del-vino-by-anonymous</dc:source><dc:creator><cc:Agent><dc:title>Anonymous</dc:title></cc:Agent></dc:creator><dc:subject><rdf:Bag><rdf:li>bottle</rdf:li><rdf:li>cartoon</rdf:li><rdf:li>clip art</rdf:li><rdf:li>clipart</rdf:li><rdf:li>drink</rdf:li><rdf:li>wine</rdf:li></rdf:Bag></dc:subject></cc:Work><cc:License
       rdf:about="http://creativecommons.org/publicdomain/zero/1.0/"><cc:permits
         rdf:resource="http://creativecommons.org/ns#Reproduction" /><cc:permits
         rdf:resource="http://creativecommons.org/ns#Distribution" /><cc:permits
         rdf:resource="http://creativecommons.org/ns#DerivativeWorks" /></cc:License></rdf:RDF></metadata><text
   id="text448"
   y="123.25745"
   x="162.84378"
   style="font-style:normal;font-weight:normal;font-size:40px;line-height:1.25;font-family:sans-serif;fill:#000000;fill-opacity:1;stroke:none"
   xml:space="preserve"><tspan
     style="font-style:normal;font-variant:normal;font-weight:bold;font-stretch:normal;font-size:53.3333px;font-family:'Segoe Script';-inkscape-font-specification:'Segoe Script, Bold';font-variant-ligatures:normal;font-variant-caps:normal;font-variant-numeric:normal;font-variant-east-asian:normal"
     y="123.25745"
     x="162.84378"
     id="tspan446"
     sodipodi:role="line">Triple Sec</tspan></text><text
   id="text452"
   y="166.44254"
   x="197.03197"
   style="font-style:normal;font-variant:normal;font-weight:bold;font-stretch:normal;font-size:16px;line-height:1.25;font-family:'Segoe Script';-inkscape-font-specification:'Segoe Script, Bold';font-variant-ligatures:normal;font-variant-caps:normal;font-variant-numeric:normal;font-variant-east-asian:normal;fill:#000000;fill-opacity:1;stroke:none"
   xml:space="preserve"><tspan
     y="166.44254"
     x="197.03197"
     id="tspan450"
     sodipodi:role="line">Web Crypto made simple</tspan></text><text
   id="text456"
   y="260.01022"
   x="278.90372"
   style="font-style:normal;font-weight:normal;font-size:8px;line-height:1.25;font-family:'Segoe Script';fill:#000000;fill-opacity:1;stroke:none;-inkscape-font-specification:'Segoe Script, Normal';font-stretch:normal;font-variant:normal;font-variant-ligatures:normal;font-variant-caps:normal;font-variant-numeric:normal;font-variant-east-asian:normal;"
   xml:space="preserve"><tspan
     y="260.01022"
     x="278.90372"
     id="tspan454"
     sodipodi:role="line">I am not a graphic designer give me a break</tspan></text></svg>
